<?xml version="1.0" encoding="utf-8"?>
<!-- Generator: Adobe Illustrator 21.0.0, SVG Export Plug-In . SVG Version: 6.00 Build 0)  -->
<svg version="1.1" id="Layer_1" xmlns="http://www.w3.org/2000/svg" xmlns:xlink="http://www.w3.org/1999/xlink" x="0px" y="0px"
	 viewBox="0 0 199.5 198.6" style="enable-background:new 0 0 199.5 198.6;" xml:space="preserve">
<style type="text/css">
	.st0{fill:#5DB041;stroke:#5DB041;stroke-miterlimit:10;}
	.st1{fill:#519936;}
	.st2{fill:none;stroke:#519936;stroke-miterlimit:10;}
	.st3{fill:none;stroke:#519936;stroke-width:0.5;stroke-miterlimit:10;}
	.st4{fill:#1C3849;}
	.st5{fill:#FFFFFF;}
	.st6{fill:none;}
	.st7{fill:none;stroke:#5DB041;stroke-miterlimit:10;}
	.st8{fill:none;stroke:#818181;stroke-linecap:round;stroke-miterlimit:10;}
</style>
<g>
	<g>
		<path class="st0" d="M184.7,88.9l-70-76.7c-0.2-0.2-0.5-0.3-0.8-0.2L22.5,37c-2.9,0.8-5.2,2.8-6.4,5.5c-1.7,4-3.8,9.6-4,14.2
			c-0.4,8.5,2.5,15.2,4.7,19.1c1.2,2.2,2,4.6,2.2,7.1c0.9,9.8,3.1,33.7,4,43.2c0.2,2.5,1.4,4.9,3.2,6.7l55,52.5
			c0.6,0.6,1.5,0.9,2.3,1l1.1-18.2l90.9-32.5c0.1-0.3,0.3-0.5,0.5-0.6l1.4-0.5c0.3-0.1,0.5-0.3,0.5-0.6L187,99
			C188.2,95.5,187.2,91.6,184.7,88.9z"/>
		<g>
			<path class="st1" d="M82.5,122.7v3.5c0,1.1,0.4,2.2,1.2,3.1l3.9,4.3l0.7-9c0.4-5.8-1.4-11.5-5.2-16L25.7,40.7
				c-1.8-2.2-5-2.7-7.5-1.3c-0.9,0.9-1.6,1.9-2.1,3.1c-0.3,0.8-0.7,1.7-1.1,2.6l3.4,0.5c3,0.5,5.8,2,7.8,4.4l52.5,62.2
				C81.2,115.2,82.5,118.9,82.5,122.7z"/>
		</g>
		<line class="st2" x1="83.3" y1="186.4" x2="87.9" y2="129.3"/>
		<line class="st2" x1="87.9" y1="129.3" x2="187.2" y2="99.1"/>
		<path class="st2" d="M148.7,78.4L92.1,93.3c-0.6,0.2-1.3-0.1-1.7-0.6l-6.3-7.9c-0.7-0.9-0.3-2.3,0.9-2.6l56.6-14.9
			c0.6-0.2,1.3,0.1,1.7,0.6l6.3,7.9C150.3,76.8,149.9,78.1,148.7,78.4z"/>
		<path class="st3" d="M163.7,65.9h-11.4c-3.6,0-7-1.7-9.2-4.5l-25-32.3l4.6-8"/>
		<path class="st3" d="M153.8,65.9l2.1,3.3c0.7,1.1,0.1,2.5-1.1,2.8l-6.6,2"/>
		<ellipse transform="matrix(0.9694 -0.2455 0.2455 0.9694 -6.5007 34.6771)" class="st1" cx="135.8" cy="43.4" rx="2.6" ry="1.8"/>
		<line class="st3" x1="146.2" y1="46.7" x2="133.9" y2="49.2"/>
		<line class="st3" x1="71.6" y1="95.2" x2="88.3" y2="90"/>
		<path class="st4" d="M160.1,127.6l12.2-4c0.2-0.1,0.4,0.1,0.3,0.3l-1.3,7c0,0.1-0.1,0.2-0.2,0.2l-11.9,3.9
			c-0.2,0.1-0.4-0.1-0.3-0.3l1-6.9C159.9,127.7,160,127.6,160.1,127.6z"/>
		<ellipse transform="matrix(0.2149 -0.9766 0.9766 0.2149 3.899 263.5346)" class="st5" cx="165.9" cy="129.3" rx="1.7" ry="1.5"/>
		<g>
			<path class="st6" d="M83.6,186.3c0.6,0,1.1,0,1.6-0.2l41.5-16.1c0.4-0.2,0.6-0.6,0.5-1.1c-0.2-0.4,0-0.9,0.5-1.1l9.1-3.5
				c0.4-0.2,0.9,0,1.1,0.5l0,0c0.2,0.4,0.6,0.6,1.1,0.5l33.5-13c0.3-0.1,0.5-0.3,0.5-0.6l2.8-16.1l-91,32.5L83.6,186.3z"/>
			<path class="st7" d="M184.7,88.9l-70-76.7c-0.2-0.2-0.5-0.3-0.8-0.2L22.5,37c-2.9,0.8-5.2,2.8-6.4,5.5c-1.7,4-3.8,9.6-4,14.2
				c-0.4,8.5,2.5,15.2,4.7,19.1c1.2,2.2,2,4.6,2.2,7.1c0.9,9.8,3.1,33.7,4,43.2c0.2,2.5,1.4,4.9,3.2,6.7l55,52.5
				c0.6,0.6,1.5,0.9,2.3,1l1.1-18.2l90.9-32.5c0.1-0.3,0.3-0.5,0.5-0.6l1.4-0.5c0.3-0.1,0.5-0.3,0.5-0.6L187,99
				C188.2,95.5,187.2,91.6,184.7,88.9z"/>
		</g>
		<path class="st1" d="M84.1,167.5l-1.6,19.4c0,0,1.1,0.3,1.8,0.2l41.4-16.6c0.4-0.2,0.6-0.6,0.5-1.1c-0.2-0.4,0-0.9,0.5-1.1
			l9.1-3.5c0.4-0.2,0.9,0,1.1,0.5l0,0c0.2,0.4,0.6,0.6,1.1,0.5l33.5-13c0.3-0.1,0.5-0.3,0.5-0.6l2.8-16.1L84.1,167.5z"/>
		<path class="st2" d="M143.3,67.9l6.3,7.9c0.7,0.9,0.3,2.3-0.9,2.6L92.1,93.3c-0.6,0.2-1.3-0.1-1.7-0.6l-6.3-7.9
			c-0.7-0.9-0.3-2.3,0.9-2.6"/>
	</g>
	<g>
		<path class="st5" d="M116.8,22.8L61.7,37.6c0,0,17,2.5,27.9,54l1.5,1.6l52.8-13.5c-0.6-3.3-1.6-8.3-3-14.2
			c-3.6-14.7-5.5-22.2-10.5-30c-2.2-3.4-5.9-7.7-12-12.4C117.8,22.8,117.3,22.7,116.8,22.8z"/>
		<line class="st8" x1="79.6" y1="42.3" x2="117.7" y2="32.3"/>
		<line class="st8" x1="82.3" y1="47.6" x2="121.5" y2="37.3"/>
		<line class="st8" x1="85.2" y1="52.4" x2="123.3" y2="42.5"/>
		<line class="st8" x1="88.3" y1="57.8" x2="126.4" y2="47.8"/>
	</g>
</g>
</svg>
