<svg width="88px" height="87px" viewBox="0 -4 88 87" version="1.1" xmlns="http://www.w3.org/2000/svg" xmlns:xlink="http://www.w3.org/1999/xlink"><path d="M30.1190089,50.7956156 C30.1413725,51.1548716 30.1658886,51.516032 30.1977193,51.8750949 C30.0184046,51.6390214 29.8398008,51.4014832 29.6654821,51.1614555 C29.8023589,51.0667263 29.9320554,50.9677512 30.0524498,50.8588335 C30.0759758,50.8356954 30.0974984,50.8156543 30.1190089,50.7956156 Z M39.2555119,23.3277883 C32.8860583,29.4880011 28.8442811,36.9843754 26.8289462,44.4784415 C25.6347851,48.9201317 25.1373644,53.420524 25.3284016,57.8281621 C25.2125538,57.7768986 25.0682867,57.7400891 24.9124889,57.7154124 C24.8597308,57.6838866 24.7155108,57.6281498 24.6661525,57.5893443 C24.5310398,57.4843411 24.4072917,57.3672537 24.2718449,57.2610856 C23.7529608,56.8550663 22.772392,56.8916202 22.069052,56.9949478 C20.9795121,57.1560565 19.9134,57.4214102 18.9174176,57.8986644 C18.6148603,58.0434233 17.3245362,58.6895609 17.594212,59.1203856 C20.4560055,63.6637575 24.6122209,67.4211157 28.2546851,71.4985368 C28.7421646,72.0459593 30.8205794,71.4789844 31.4537466,71.2974266 C32.2532387,71.068176 33.9473206,70.5508833 34.2743099,69.7724372 C36.8088872,63.7359005 40.390559,57.4155064 46.1079643,52.6502312 C47.1976666,51.7426072 45.2572357,51.668554 44.6345455,51.7386673 C43.2219588,51.8965788 41.5331798,52.3896549 40.456684,53.2859263 C37.1699925,56.023929 34.5404434,59.2619638 32.3991167,62.6714522 C29.7070611,49.7560363 33.1455681,34.7813492 44.1998393,23.4634852 C46.9343298,20.6656844 50.019984,18.2892116 53.599274,16.2301686 C53.6395273,16.2085389 53.699048,16.177602 53.7774019,16.1324374 C54.0145618,16.0026476 54.2544372,15.878384 54.4934526,15.7505837 C54.9760467,15.4961972 55.4663292,15.2534756 55.9588507,15.0151561 C56.3867439,14.8079774 56.8234079,14.613415 57.2593357,14.4190637 C57.2212776,14.4388032 57.7321061,14.2204529 57.7710119,14.2042527 C58.0304364,14.0958199 58.2908081,13.994679 58.5521997,13.891986 C59.0786877,13.6855376 59.6119176,13.4935482 60.1446532,13.3054818 C60.1917899,13.2881832 60.4337063,13.2087276 60.5791106,13.1594679 C60.7975172,13.0880143 61.0148736,13.021906 61.2337939,12.9528267 C61.7894187,12.7821559 62.3512167,12.6273668 62.9135288,12.4749528 C63.1087491,12.4227577 63.3044709,12.3729392 63.5017011,12.3226893 C63.5124981,12.3221149 64.0243855,12.1980306 64.083216,12.1849436 C65.1737507,11.9378064 67.2319798,11.4421884 67.7306816,10.4165398 C68.2140517,9.42176692 65.7219753,9.75051517 65.2118118,9.86653942 C55.2851563,12.1228493 46.1462707,16.6612504 39.2555119,23.3277883 Z" id="Fill-121-Copy" stroke="none" fill="#1C384A" fill-rule="evenodd" transform="translate(42.674972, 40.725844) rotate(-38.000000) translate(-42.674972, -40.725844) "></path></svg>