<?xml version="1.0" encoding="UTF-8"?>
<svg width="24px" height="20px" viewBox="0 0 24 20" version="1.1" xmlns="http://www.w3.org/2000/svg" xmlns:xlink="http://www.w3.org/1999/xlink">
    <!-- Generator: Sketch 47.1 (45422) - http://www.bohemiancoding.com/sketch -->
    <title>Twitter-color</title>
    <desc>Created with Sketch.</desc>
    <defs></defs>
    <g id="Page-1" stroke="none" stroke-width="1" fill="none" fill-rule="evenodd">
        <g id="Acceler-List-Green--BLOG" transform="translate(-817.000000, -717.000000)" fill="#00AAEC">
            <g id="infp" transform="translate(546.000000, 705.000000)">
                <g id="Group-7" transform="translate(219.000000, 0.000000)">
                    <g id="Group-5" transform="translate(18.000000, 12.000000)">
                        <path d="M58,2.36764175 C57.1181546,2.76923077 56.1686917,3.04080896 55.1727417,3.1621524 C56.1898222,2.5381004 56.9702412,1.54857349 57.3379116,0.369808595 C56.3856313,0.947634525 55.3333333,1.36800289 54.2091918,1.593355 C53.3132594,0.612495486 52.0327522,0 50.6156013,0 C47.8982215,0 45.693608,2.26074395 45.693608,5.04875406 C45.693608,5.44456482 45.735869,5.82881907 45.8203909,6.19862766 C41.7281211,5.9877212 38.100722,3.97977609 35.6707167,0.921632358 C35.2466984,1.66991694 35.0044022,2.5381004 35.0044022,3.46262189 C35.0044022,5.21343445 35.8735693,6.75911882 37.1949287,7.66486096 C36.389153,7.64030336 35.6284557,7.41061755 34.9635499,7.0350307 L34.9635499,7.09714698 C34.9635499,9.5442398 36.6610319,11.5854099 38.9149498,12.0476706 C38.5022011,12.166125 38.0669132,12.2253521 37.6175383,12.2253521 C37.3005811,12.2253521 36.9906674,12.1950163 36.6906145,12.1357891 C37.3174855,14.1408451 39.1347068,15.6013001 41.2900158,15.6403034 C39.6052122,16.9953052 37.4808945,17.8028169 35.1748547,17.8028169 C34.7776017,17.8028169 34.3845747,17.7797039 34,17.7334778 C36.1792569,19.163597 38.7684451,20 41.5478077,20 C50.6057404,20 55.5573164,12.3076923 55.5573164,5.63524738 C55.5573164,5.41567353 55.5530903,5.19609967 55.5446381,4.98085952 C56.5067794,4.26868906 57.3421377,3.38028169 58,2.36764175" id="Twitter"></path>
                    </g>
                </g>
            </g>
        </g>
    </g>
</svg>