<?xml version="1.0" encoding="UTF-8"?>
<svg width="30px" height="20px" viewBox="0 0 30 20" version="1.1" xmlns="http://www.w3.org/2000/svg" xmlns:xlink="http://www.w3.org/1999/xlink">
    <!-- Generator: Sketch 47.1 (45422) - http://www.bohemiancoding.com/sketch -->
    <title>GooglePlus-color</title>
    <desc>Created with Sketch.</desc>
    <defs></defs>
    <g id="Page-1" stroke="none" stroke-width="1" fill="none" fill-rule="evenodd">
        <g id="Acceler-List-Green--BLOG" transform="translate(-855.000000, -717.000000)" fill="#F93F2D">
            <g id="infp" transform="translate(546.000000, 705.000000)">
                <g id="Group-7" transform="translate(219.000000, 0.000000)">
                    <g id="Group-5" transform="translate(18.000000, 12.000000)">
                        <path d="M98.6981132,8.21782178 L98.6981132,4.75247525 L96.3396226,4.75247525 L96.3396226,8.21782178 L92.9433962,8.21782178 L92.9433962,10.6930693 L96.3396226,10.6930693 L96.3396226,14.2574257 L98.6981132,14.2574257 L98.6981132,10.6930693 L102,10.6930693 L102,8.21782178 L98.6981132,8.21782178 L98.6981132,8.21782178 Z M81.5283019,8.01980198 L81.5283019,11.980198 C81.5283019,11.980198 85.1890566,11.9750495 86.6796226,11.9750495 C85.8724528,14.5424752 84.6173585,15.9405941 81.5283019,15.9405941 C78.4021698,15.9405941 75.9622642,13.2808911 75.9622642,10 C75.9622642,6.71910891 78.4021698,4.05940594 81.5283019,4.05940594 C83.1811321,4.05940594 84.2485849,4.66910891 85.2277358,5.51891089 C86.0115094,4.69633663 85.9460377,4.57910891 87.9400943,2.60277228 C86.2473585,0.985742574 83.9975472,0 81.5283019,0 C76.2659434,0 72,4.47712871 72,10 C72,15.5227723 76.2659434,20 81.5283019,20 C89.3940566,20 91.3166038,12.8118812 90.6792453,8.01980198 L81.5283019,8.01980198 L81.5283019,8.01980198 Z" id="GooglePlus"></path>
                    </g>
                </g>
            </g>
        </g>
    </g>
</svg>