<?xml version="1.0" encoding="UTF-8"?>
<svg width="23px" height="20px" viewBox="0 0 23 20" version="1.1" xmlns="http://www.w3.org/2000/svg" xmlns:xlink="http://www.w3.org/1999/xlink">
    <!-- Generator: Sketch 47.1 (45422) - http://www.bohemiancoding.com/sketch -->
    <title>Medium-color</title>
    <desc>Created with Sketch.</desc>
    <defs></defs>
    <g id="Page-1" stroke="none" stroke-width="1" fill="none" fill-rule="evenodd">
        <g id="Acceler-List-Green--BLOG" transform="translate(-899.000000, -717.000000)">
            <g id="infp" transform="translate(546.000000, 705.000000)">
                <g id="Group-7" transform="translate(219.000000, 0.000000)">
                    <g id="Group-5" transform="translate(18.000000, 12.000000)">
                        <g id="Medium" transform="translate(116.000000, 0.000000)">
                            <path d="M15.9016792,0.237777778 C15.5558113,0.0606666667 15.2728679,0.239777778 15.2728679,0.635777778 L15.2728679,16.3888889 L21.5846321,19.6211111 C22.2791887,19.9766667 22.8422547,19.7277778 22.8422547,19.0651111 L22.8422547,3.89533333 C22.8422547,3.832 22.8071038,3.77377778 22.7517736,3.74533333 L15.9016792,0.237777778" id="Fill-1" fill="#00FC87"></path>
                            <path d="M7.70369811,12.5128889 L14.904434,0.528888889 C15.1070943,0.191555556 15.5558113,0.0606666667 15.9016792,0.237777778 L22.7595849,3.74933333 C22.804066,3.77222222 22.8199057,3.82911111 22.7938679,3.87244444 L15.2728679,16.3888889 L7.70369811,12.5128889" id="Fill-2" fill="#00E468"></path>
                            <path d="M1.18233019,0.452444444 C0.605811321,0.157111111 0.410528302,0.375555556 0.748367925,0.937777778 L7.70369811,12.5128889 L15.2728679,16.3888889 L7.7199717,3.81888889 C7.70933962,3.80111111 7.69393396,3.78688889 7.67570755,3.77755556 L1.18233019,0.452444444" id="Fill-3" fill="#00C860"></path>
                            <path d="M7.70369811,19.0651111 C7.70369811,19.7251111 7.23198113,20.0235556 6.65567925,19.7284444 L0.763122642,16.7108889 C0.417254717,16.5337778 0.134311321,16.0648889 0.134311321,15.6688889 L0.134311321,0.875777778 C0.134311321,0.347777778 0.511641509,0.108888889 0.972726415,0.345111111 L7.66290566,3.77088889 C7.68785849,3.78377778 7.70369811,3.80977778 7.70369811,3.83822222 L7.70369811,19.0651111" id="Fill-4" fill="#00AC68"></path>
                        </g>
                    </g>
                </g>
            </g>
        </g>
    </g>
</svg>