<?xml version="1.0" encoding="UTF-8"?>
<svg width="20px" height="20px" viewBox="0 0 20 20" version="1.1" xmlns="http://www.w3.org/2000/svg" xmlns:xlink="http://www.w3.org/1999/xlink">
    <!-- Generator: Sketch 47.1 (45422) - http://www.bohemiancoding.com/sketch -->
    <title>Whatsapp-color</title>
    <desc>Created with Sketch.</desc>
    <defs></defs>
    <g id="Page-1" stroke="none" stroke-width="1" fill="none" fill-rule="evenodd">
        <g id="Acceler-List-Green--BLOG" transform="translate(-936.000000, -717.000000)" fill="#67C15E">
            <g id="infp" transform="translate(546.000000, 705.000000)">
                <g id="Group-7" transform="translate(219.000000, 0.000000)">
                    <g id="Group-5" transform="translate(18.000000, 12.000000)">
                        <path d="M162.997097,-3.55271368e-15 L162.997097,0.000165915897 L163.002903,0.000165915897 C168.515729,0.000165915897 173,4.4857022 173,10.000083 C173,15.5142978 168.515729,20 163.002903,20 C160.969347,20 159.082752,19.3945729 157.501854,18.3481413 L153.658169,19.5765826 L154.904177,15.8612279 C153.705275,14.2150104 153,12.1868545 153,9.99991704 C153,4.48553628 157.484271,-3.55271368e-15 162.997097,-3.55271368e-15 Z M160.205354,5.07951519 C160.011453,4.6151166 159.864493,4.59752951 159.570739,4.58558357 C159.47072,4.57977651 159.359256,4.57396945 159.235683,4.57396945 C158.853521,4.57396945 158.453942,4.68563085 158.212934,4.93251371 C157.91918,5.23232374 157.190351,5.93182516 157.190351,7.36633401 C157.190351,8.80084285 158.236488,10.1882316 158.377477,10.3823532 C158.524437,10.576143 160.417003,13.5626291 163.35554,14.7797881 C165.653491,15.7321454 166.335379,15.6438781 166.858364,15.5322167 C167.622357,15.3676281 168.580417,14.8030164 168.821425,14.1212679 C169.062433,13.4391877 169.062433,12.8571547 168.991773,12.7337133 C168.921279,12.6102719 168.727212,12.5399235 168.433457,12.3927561 C168.139703,12.2457546 166.711404,11.5402802 166.441038,11.4462059 C166.176476,11.3463245 165.923858,11.3816646 165.724151,11.6638876 C165.442008,12.0577719 165.165836,12.4576292 164.94241,12.6985391 C164.766091,12.8866877 164.477977,12.9102478 164.237135,12.8102005 C163.913856,12.675145 163.008874,12.357416 161.892077,11.3639116 C161.028065,10.593896 160.440391,9.63573165 160.270043,9.34770165 C160.09953,9.0538646 160.252461,8.88313714 160.387479,8.72452154 C160.534439,8.54217997 160.675427,8.41293149 160.822387,8.24236994 C160.969347,8.07197432 161.051618,7.98370706 161.145666,7.7837784 C161.245685,7.58982272 161.175025,7.38989406 161.104531,7.24289258 C161.034036,7.09589109 160.446362,5.66138225 160.205354,5.07951519 Z" id="Whatsapp"></path>
                    </g>
                </g>
            </g>
        </g>
    </g>
</svg>