<?xml version="1.0" encoding="UTF-8"?>
<svg width="1920px" height="1044px" viewBox="0 0 1920 1044" version="1.1" xmlns="http://www.w3.org/2000/svg" xmlns:xlink="http://www.w3.org/1999/xlink">
    <!-- Generator: Sketch 47.1 (45422) - http://www.bohemiancoding.com/sketch -->
    <title>Group 9</title>
    <desc>Created with Sketch.</desc>
    <defs>
        <linearGradient x1="2.54161345%" y1="79.8264294%" x2="26.9416768%" y2="31.2051046%" id="linearGradient-1">
            <stop stop-color="#8ED35C" offset="0%"></stop>
            <stop stop-color="#55A72F" offset="100%"></stop>
        </linearGradient>
        <path d="M0,0 L1920,0 L1920,914 C1493.76691,1000.47007 1173.76691,1043.70511 960,1043.70511 C746.233094,1043.70511 426.233094,1000.47007 0,914 L0,0 Z" id="path-2"></path>
        <linearGradient x1="127.685559%" y1="-2.00978267%" x2="63.1191373%" y2="32.2222621%" id="linearGradient-4">
            <stop stop-color="#ACEB7F" offset="0%"></stop>
            <stop stop-color="#74D248" offset="100%"></stop>
        </linearGradient>
    </defs>
    <g id="Page-1" stroke="none" stroke-width="1" fill="none" fill-rule="evenodd">
        <g id="Acceler-List-Green--TRUE-Copy">
            <g id="Section-1">
                <g id="shape">
                    <g id="Group-9">
                        <mask id="mask-3" fill="white">
                            <use xlink:href="#path-2"></use>
                        </mask>
                        <use id="Mask" fill="url(#linearGradient-1)" xlink:href="#path-2"></use>
                        <g id="shape" mask="url(#mask-3)">
                            <path d="M0,202.649622 L0,940.493108 C248.13679,1009.89442 515.826584,1044.59508 803.069383,1044.59508 C1246.7399,1044.59508 1268.44494,1038.01612 1409.67766,1019.42681 C1421.81037,1017.82988 1433.52139,1016.15447 1444.85021,1014.59961 C1453.51323,1013.41063 1461.91704,1012.08179 1470.11829,1010.94066 C1478.47537,1009.77784 1486.50184,1008.27212 1494.38749,1007.18182 C1503.66483,1005.89909 1553.3692,997.125156 1562.0061,995.978899 C1656.85578,983.390806 1598.81765,833.593133 1387.8917,546.585879 L557.63124,231 L0,202.649622 Z" id="Path-6" fill="url(#linearGradient-1)"></path>
                            <path d="M145.217779,0 L0,0 L0,203.489695 C80.5580181,248.478509 209.800125,284.107693 387.72632,310.377249 C654.615612,349.781582 979.337732,446.173357 1025.50526,468.595451 C1071.67278,491.017546 1237.45529,545.965108 1348.61218,711.031801 C1422.71677,821.076263 1490.11397,918.336883 1550.80379,1002.81366 C1578.77627,998.04092 1599.97034,994.367352 1614.386,991.792958 C1716.7709,973.508743 1808.31198,948.915222 1842.61013,935.731162 C1864.66239,927.254372 1786.23252,797.22037 1607.32054,545.629156 L1125.50497,280.145336 L375.679037,0 L145.217779,0 Z" id="Path-5" fill="#69BD43"></path>
                            <path d="M173,0 C180.209751,110.03676 290.371757,189.700333 503.486017,238.990717 C823.157408,312.926293 957.856367,304.698073 1203.20838,432.713665 C1341.08726,504.653757 1384.87897,534.788991 1423.16964,567.926247 C1453.01625,593.755907 1483.60398,622.92866 1526.21884,665.25572 C1623.50494,761.884797 1746.22737,962.908546 1750.53476,962.037 C1752.18779,961.702532 1813.37003,945.49052 1832.53854,940.940777 C1845.31755,937.907615 1874.47137,929.159083 1920,914.695182 L1670.61483,432.713665 L902.559548,145.366211 L537.104966,0 L173,0 Z" id="Path-4" fill="#79CC53"></path>
                            <path d="M494,0 C523.116838,109.530103 628.715116,187.055548 810.794833,232.576336 C1083.91441,300.857517 1259.94861,370.550063 1371.73999,429.811906 C1483.53136,489.07375 1625.71664,589.85512 1728.56702,736.686348 C1797.13395,834.573833 1840.64671,899.289819 1859.10531,930.834306 L1920.35888,914.11364 L1920.35888,823.49495 L1626.51183,252.371491 L1132.43134,151.881331 L827.329428,0 L494,0 Z" id="Path-3" fill="#8DDD69"></path>
                            <path d="M822,0 C833.464686,132.183876 945.275406,212.463829 1157.43216,240.839859 C1475.66729,283.403905 1642.40666,433.473493 1732.76017,538.270977 C1792.99584,608.135967 1855.54938,706.784016 1920.42078,834.215125 L1920.42078,0 L822,0 Z" id="Path-2" fill="url(#linearGradient-4)"></path>
                        </g>
                    </g>
                </g>
            </g>
        </g>
    </g>
</svg>