<?xml version="1.0" encoding="UTF-8"?>
<svg width="20px" height="31px" viewBox="0 0 20 31" version="1.1" xmlns="http://www.w3.org/2000/svg" xmlns:xlink="http://www.w3.org/1999/xlink">
    <!-- Generator: Sketch 47.1 (45422) - http://www.bohemiancoding.com/sketch -->
    <title>Shape</title>
    <desc>Created with Sketch.</desc>
    <defs></defs>
    <g id="Page-1" stroke="none" stroke-width="1" fill="none" fill-rule="evenodd">
        <g id="Acceler-List-Green--BLOG" transform="translate(-891.000000, -770.000000)" fill-rule="nonzero" fill="#64CB31">
            <g id="infp" transform="translate(546.000000, 705.000000)">
                <g id="Group-2-Copy" transform="translate(332.000000, 65.000000)">
                    <path d="M17.1122449,19.4734694 C17.855102,19.4734694 18.544898,19.2612245 19.155102,18.9163265 L24.8326531,24.5938776 C24.4877551,25.2040816 24.2755102,25.8938776 24.2755102,26.6367347 C24.2755102,28.9183673 26.1326531,30.7489796 28.3877551,30.7489796 C30.6428571,30.7489796 32.5,28.8918367 32.5,26.6367347 C32.5,24.355102 30.6428571,22.5244898 28.3877551,22.5244898 C27.644898,22.5244898 26.955102,22.7367347 26.344898,23.0816327 L20.6938776,17.4040816 C21.0387755,16.7938776 21.2510204,16.1040816 21.2510204,15.3612245 C21.2510204,14.6183673 21.0387755,13.9285714 20.6938776,13.3183673 L26.344898,7.66734694 C26.955102,8.0122449 27.644898,8.2244898 28.3877551,8.2244898 C30.6693878,8.2244898 32.5,6.36734694 32.5,4.1122449 C32.5,1.85714286 30.6428571,0 28.3877551,0 C26.1326531,0 24.2755102,1.85714286 24.2755102,4.1122449 C24.2755102,4.85510204 24.4877551,5.54489796 24.8326531,6.15510204 L19.155102,11.7795918 C18.5714286,11.4346939 17.855102,11.2489796 17.1122449,11.2489796 C14.8306122,11.2489796 13,13.1061224 13,15.3612245 C13,17.6163265 14.8571429,19.4734694 17.1122449,19.4734694 L17.1122449,19.4734694 Z M28.4142857,24.7 C29.5020408,24.7 30.377551,25.5755102 30.377551,26.6632653 C30.377551,27.7510204 29.5020408,28.6265306 28.4142857,28.6265306 C27.3265306,28.6265306 26.4510204,27.7510204 26.4510204,26.6632653 C26.4510204,25.5755102 27.3265306,24.7 28.4142857,24.7 Z M28.4142857,2.12244898 C29.5020408,2.12244898 30.377551,2.99795918 30.377551,4.08571429 C30.377551,5.17346939 29.5020408,6.04897959 28.4142857,6.04897959 C27.3265306,6.04897959 26.4510204,5.17346939 26.4510204,4.08571429 C26.4510204,2.99795918 27.3265306,2.12244898 28.4142857,2.12244898 Z M17.1122449,13.3979592 C18.2,13.3979592 19.0755102,14.2734694 19.0755102,15.3612245 C19.0755102,16.4489796 18.2,17.3244898 17.1122449,17.3244898 C16.0244898,17.3244898 15.1489796,16.4489796 15.1489796,15.3612245 C15.1489796,14.2734694 16.0510204,13.3979592 17.1122449,13.3979592 L17.1122449,13.3979592 Z" id="Shape"></path>
                </g>
            </g>
        </g>
    </g>
</svg>