<?xml version="1.0" encoding="UTF-8"?>
<svg width="20px" height="20px" viewBox="0 0 20 20" version="1.1" xmlns="http://www.w3.org/2000/svg" xmlns:xlink="http://www.w3.org/1999/xlink">
    <!-- Generator: Sketch 47.1 (45422) - http://www.bohemiancoding.com/sketch -->
    <title>delete</title>
    <desc>Created with Sketch.</desc>
    <defs>
        <polygon id="path-1" points="0 0.408085106 19.5915957 0.408085106 19.5915957 19.9991489 0 19.9991489"></polygon>
    </defs>
    <g id="Page-1" stroke="none" stroke-width="1" fill="none" fill-rule="evenodd">
        <g id="Desktop-1440-+_Register" transform="translate(-1178.000000, -1727.000000)">
            <g id="Group-3" transform="translate(222.000000, 1707.000000)">
                <g id="delete" transform="translate(956.000000, 20.000000)">
                    <g>
                        <mask id="mask-2" fill="white">
                            <use xlink:href="#path-1"></use>
                        </mask>
                        <g id="Clip-2"></g>
                        <path d="M18.9293617,4.26808511 L12.993617,10.2038298 L18.9293617,16.1412766 C19.8123404,17.0238298 19.8123404,18.4548936 18.9293617,19.3378723 C18.4889362,19.78 17.9106383,19.9991489 17.3319149,19.9991489 C16.753617,19.9991489 16.1753191,19.78 15.7331915,19.3378723 L9.79574468,13.4 L3.85957447,19.3378723 C3.41744681,19.78 2.83914894,19.9991489 2.26042553,19.9991489 C1.68212766,19.9991489 1.10382979,19.78 0.663404255,19.3378723 C-0.221276596,18.4548936 -0.221276596,17.0238298 0.663404255,16.1412766 L6.59914894,10.2038298 L0.661702128,4.26808511 C-0.221276596,3.38340426 -0.221276596,1.95234043 0.661702128,1.06978723 C1.54425532,0.187234043 2.97531915,0.187234043 3.85787234,1.06978723 L9.79574468,7.00723404 L15.7331915,1.06978723 C16.6157447,0.187234043 18.0468085,0.187234043 18.9293617,1.06978723 C19.8123404,1.95234043 19.8123404,3.38340426 18.9293617,4.26808511 Z" id="Fill-1" fill="#FFFFFF" mask="url(#mask-2)"></path>
                    </g>
                </g>
            </g>
        </g>
    </g>
</svg>