<?xml version="1.0" encoding="utf-8"?>
<svg id="master-artboard" viewBox="0 0 382.5754089355469 383.71197509765625" version="1.1" xmlns="http://www.w3.org/2000/svg" x="0px" y="0px" style="enable-background:new 0 0 1400 980;" width="382.5754089355469px" height="383.71197509765625px" xmlns:xlink="http://www.w3.org/1999/xlink"><rect id="ee-background" x="0" y="0" width="382.5754089355469" height="383.71197509765625" style="fill: white; fill-opacity: 0; pointer-events: none;"/><g transform="matrix(6.356060028076172, 0, 0, 6.356060028076172, -144.16671263679171, -176.43946525331415)"><g><defs><filter filterUnits="userSpaceOnUse" height="97.071106" id="Adobe_OpacityMaskFilter" width="97.0710449" x="42.9289551" y="42.928894"><feColorMatrix type="matrix" values="1 0 0 0 0  0 1 0 0 0  0 0 1 0 0  0 0 0 1 0"/></filter></defs><mask height="97.071106" id="SVGID_1_" maskUnits="userSpaceOnUse" width="97.0710449" x="42.9289551" y="42.928894"><g filter="url(#Adobe_OpacityMaskFilter)"><radialGradient cx="70" cy="70" gradientTransform="matrix(0.7071068 0.7071068 -0.2721382 0.2721382 39.5522003 1.4528493)" gradientUnits="userSpaceOnUse" id="SVGID_2_" r="106.5634918"><stop offset="0.3" style="stop-color:#FFFFFF"/><stop offset="0.85" style="stop-color:#FFFFFF;stop-opacity:0"/></radialGradient><path d="M 0 0 H 140 V 140 H 0 V 0 Z" fill="url(#SVGID_2_)"/></g></mask><linearGradient gradientUnits="userSpaceOnUse" id="SVGID_3_" x1="-400.801513671875" x2="-330.8011169433594" y1="-465.9058837890625" y2="-395.90557861328125" gradientTransform="matrix(0.534433429299179, -0.4806241742735259, -0.3304493025783385, 0.6382947625586487, 175.83334703278774, 151.04353914569356)"><stop offset="0" style="stop-color:#000000;stop-opacity:0.4"/></linearGradient><defs><filter filterUnits="userSpaceOnUse" height="97.071106" id="Adobe_OpacityMaskFilter_1_" width="97.0710449" x="42.9289551" y="42.928894"><feColorMatrix type="matrix" values="1 0 0 0 0  0 1 0 0 0  0 0 1 0 0  0 0 0 1 0"/></filter></defs><mask height="97.071106" id="SVGID_4_" maskUnits="userSpaceOnUse" width="97.0710449" x="42.9289551" y="42.928894"><g filter="url(#Adobe_OpacityMaskFilter_1_)"><radialGradient cx="70" cy="70" gradientTransform="matrix(0.7071068 0.7071068 -0.3889087 0.3889087 47.7261353 -6.7210855)" gradientUnits="userSpaceOnUse" id="SVGID_5_" r="79.5565872"><stop offset="0.3" style="stop-color:#FFFFFF"/><stop offset="0.85" style="stop-color:#FFFFFF;stop-opacity:0"/></radialGradient><path d="M 0 0 H 140 V 140 H 0 V 0 Z" fill="url(#SVGID_5_)"/></g></mask><linearGradient gradientUnits="userSpaceOnUse" id="SVGID_6_" x1="53.182334899902344" x2="123.18238830566406" y1="-1.5256967544555664" y2="68.47432708740234"><stop offset="0" style="stop-color:#1DA1F2;stop-opacity:0.6"/><stop offset="3.48845874756365e-8" style="stop-color:#1DA1F2;stop-opacity:0"/></linearGradient><g transform="matrix(1, 0, 0, 1, -17.222890945161915, -12.157334784820184)"><defs><path d="M90,100H50c-5.5228462,0-10-4.47715-10-10V50c0-5.5228462,4.4771538-10,10-10h40     c5.52285,0,10,4.4771538,10,10v40C100,95.52285,95.52285,100,90,100z" id="SVGID_79_"/></defs><clipPath id="SVGID_8_"><use overflow="visible" xlink:href="#SVGID_79_"/></clipPath><path d="M 0 0 H 70 V 70 H 0 V 0 Z" clip-path="url(#SVGID_8_)" fill="#E43137"/><path d="M 70 0 H 140 V 70 H 70 V 0 Z" clip-path="url(#SVGID_8_)" fill="#0063D1"/><path d="M 0 70 H 70 V 140 H 0 V 70 Z" clip-path="url(#SVGID_8_)" fill="#F4AE01"/><path d="M 70 70 H 140 V 140 H 70 V 70 Z" clip-path="url(#SVGID_8_)" fill="#85B716"/></g><g transform="matrix(1, 0, 0, 1, -17.222890945161915, -12.157334784820184)"><defs><path d="M90,41c4.9626236,0,9,4.0373802,9,9v40c0,4.9626236-4.0373764,9-9,9H50c-4.9626198,0-9-4.0373764-9-9V50     c0-4.9626198,4.0373802-9,9-9H90 M90,40H50c-5.52285,0-10,4.47715-10,10v40c0,5.52285,4.47715,10,10,10h40     c5.52285,0,10-4.47715,10-10V50C100,44.47715,95.52285,40,90,40L90,40z" id="SVGID_81_"/></defs><clipPath id="SVGID_9_"><use overflow="visible" xlink:href="#SVGID_81_"/></clipPath><linearGradient gradientUnits="userSpaceOnUse" id="SVGID_11_" x1="-414.9425048828125" x2="-314.9424743652344" y1="-486.5838317871094" y2="-386.5837707519531" gradientTransform="matrix(0.6371691875771659, -0.3696273440550332, -0.3382422409876292, 0.6543707874102358, 151.00923314651394, 154.03092586075627)"><stop offset="0" style="stop-color:#FFFFFF;stop-opacity:0.8"/><stop offset="0.21388412691025105" style="stop-color:#FFFFFF;stop-opacity:0"/></linearGradient><path d="M 20 20 H 120 V 120 H 20 V 20 Z" clip-path="url(#SVGID_9_)" fill="url(#SVGID_11_)"/></g><g transform="matrix(1, 0, 0, 1, -17.222890945161915, -12.157334784820184)"><defs><path d="M90,41c4.9626236,0,9,4.0373802,9,9v40c0,4.9626236-4.0373764,9-9,9H50c-4.9626198,0-9-4.0373764-9-9V50     c0-4.9626198,4.0373802-9,9-9H90 M90,40H50c-5.52285,0-10,4.47715-10,10v40c0,5.52285,4.47715,10,10,10h40     c5.52285,0,10-4.47715,10-10V50C100,44.47715,95.52285,40,90,40L90,40z" id="SVGID_84_"/></defs><clipPath id="SVGID_12_"><use overflow="visible" xlink:href="#SVGID_84_"/></clipPath><linearGradient gradientUnits="userSpaceOnUse" id="SVGID_14_" x1="215.06715393066406" x2="315.0671691894531" y1="-18.242952346801758" y2="81.75704193115234" gradientTransform="matrix(0.6670037563755362, -0.26327166608359853, -0.543849727208195, 0.4673682089452287, 42.90933342389758, 132.76348762195403)"><stop offset="0" style="stop-color:#000000;stop-opacity:0"/><stop offset="1" style="stop-color:#000000;stop-opacity:0.2"/></linearGradient><path d="M 20 20 H 120 V 120 H 20 V 20 Z" clip-path="url(#SVGID_12_)" fill="url(#SVGID_14_)"/></g><g transform="matrix(1, 0, 0, 1, -17.222890945161915, -12.157334784820184)"><defs><path d="M50,99c-4.9624023,0-9-4.0375977-9-9V50c0-4.9624023,4.0375977-9,9-9h40c4.9624023,0,9,4.0375977,9,9v40     c0,4.9624023-4.0375977,9-9,9H50z" id="SVGID_87_"/></defs><clipPath id="SVGID_15_"><use overflow="visible" xlink:href="#SVGID_87_"/></clipPath><radialGradient cx="45" cy="45" gradientUnits="userSpaceOnUse" id="SVGID_17_" r="45"><stop offset="0" style="stop-color:#FFFFFF;stop-opacity:0.2"/><stop offset="1" style="stop-color:#FFFFFF;stop-opacity:0"/></radialGradient><path d="M 90 45 A 45 45 0 0 1 45 90 A 45 45 0 0 1 0 45 A 45 45 0 0 1 45 0 A 45 45 0 0 1 90 45 Z" clip-path="url(#SVGID_15_)" fill="url(#SVGID_17_)"/></g><g transform="matrix(1, 0, 0, 1, -17.222890945161915, -12.157334784820184)"><defs><path d="M90,99.1499023H50c-5.0454102,0-9.1499023-4.1044922-9.1499023-9.1499023V50     c0-5.0454102,4.1044922-9.1499023,9.1499023-9.1499023h40c5.0454102,0,9.1499023,4.1044922,9.1499023,9.1499023v40     C99.1499023,95.0454102,95.0454102,99.1499023,90,99.1499023z M50,41.1499023     c-4.8798828,0-8.8500977,3.9702148-8.8500977,8.8500977v40c0,4.8798828,3.9702148,8.8500977,8.8500977,8.8500977h40     c4.8798828,0,8.8500977-3.9702148,8.8500977-8.8500977V50c0-4.8798828-3.9702148-8.8500977-8.8500977-8.8500977H50z" id="SVGID_90_"/></defs><clipPath id="SVGID_18_"><use overflow="visible" xlink:href="#SVGID_90_"/></clipPath><linearGradient gradientUnits="userSpaceOnUse" id="SVGID_19_" x1="42.28844451904297" x2="142.28843688964844" y1="-48.081077575683594" y2="51.91892623901367"><stop offset="0.2" style="stop-color:#FFFFFF;stop-opacity:0.8"/><stop offset="0.7978081703186035" style="stop-color:#FFFFFF;stop-opacity:0"/></linearGradient><path d="M 20 20 H 120 V 120 H 20 V 20 Z" clip-path="url(#SVGID_18_)" fill="url(#SVGID_19_)"/></g><g transform="matrix(1.2810308933258057, 0, 0, 1.2810308933258057, -38.84567460605059, -34.6208720010067)"><path d="M61.7592888,72.3484192c0-1.6624908-1.0553741-4.2252655-4.880909-4.2252655    c-2.821312,0-5.1723099,1.1969376-5.1723099,4.8080597c0,2.8608017,1.5808792,4.6623611,5.245163,4.6623611    c4.3130302,0,4.5895081-2.8411255,4.5895081-2.8411255h-2.0898705c0,0-0.448082,1.5298386-2.6271248,1.5298386    c-1.7747726,0-3.0512657-1.1989136-3.0512657-2.879364h7.9868088V72.3484192z M53.8187103,72.0570221    c0-1.6467819,1.5032959-2.5861511,2.9868202-2.5861511c1.6893997,0,2.8411255,1.0349579,2.8411255,2.5861511H53.8187103z" fill="#FFFFFF"/><path d="M67.4446106,68.1504745c-2.7824173,0-3.6470184,1.5025177-3.6470184,1.5025177v-5.0266113h-2.0397873    v11.1537094c0,0.6331177-0.0451889,1.5220871-0.0451889,1.5220871h1.9932976c0,0,0.0715485-0.6384659,0.0715485-1.2219696    c0,0,0.9848137,1.5406876,3.6625938,1.5406876c2.8198242,0,4.7352142-1.9577103,4.7352142-4.7625275    C72.1752701,70.2490845,70.4159164,68.1504745,67.4446106,68.1504745z M66.9437714,76.2413101    c-2.0437317,0-3.1461792-1.5957413-3.1461792-3.3647308c0-1.6483536,0.9892502-3.3465195,3.1325226-3.3465195    c1.9148788,0,3.1325226,1.4211655,3.1325226,3.3283081C70.0626373,74.9034271,68.6563034,76.2413101,66.9437714,76.2413101z" fill="#FFFFFF"/><path d="M81.5,76v-4.3914566c0-2.8794098-2.3225555-3.4853897-4.3709641-3.4853897h-0.0000076    c-4.2444458,0-4.516655,2.3240509-4.516655,2.6954346h2.1126251c0,0,0.1107864-1.3568268,2.2583389-1.3568268    c1.3955078,0,2.4768753,0.6387482,2.4768753,1.8667679v0.4370956h-2.4768753c-3.2882385,0-5.0266113,0.961937-5.0266113,2.9139709    c0,1.9210892,1.6062012,2.9663467,3.7767868,2.9663467c2.958168,0,3.9111023-1.6345673,3.9111023-1.6345673    c0,0.6501465,0.0501175,1.290802,0.0501175,1.290802h1.8781204C81.5728531,77.3021774,81.5,76.5080643,81.5,76z     M79.4602127,73.6597137c0,0.7601166-0.4690475,2.6498947-3.2304153,2.6498947    c-1.5121155,0-2.1604385-0.7546616-2.1604385-1.6300125c0-1.5924225,2.1832886-1.602684,5.3908539-1.602684V73.6597137z" fill="#FFFFFF"/><path d="M 89.55310821533203 68.4877700805664 L 86.1500015258789 75.32130432128906 L 82.73908996582031 68.4877700805664 L 80.36237335205078 68.4877700805664 L 85.0377426147461 77.26222229003906 L 83.24903106689453 80.65361785888672 L 85.50736999511719 80.65361785888672 L 91.70606994628906 68.4877700805664 Z" fill="#FFFFFF"/></g><g transform="matrix(1.2810308933258057, 0, 0, 1.2810308933258057, -38.84567460605059, -34.6208720010067)"><path d="M54.6169968,77.2773209c0.6568985,0.2071533,1.4324799,0.3162537,2.3342361,0.3162537    c4.3130302,0,4.5895081-2.8411255,4.5895081-2.8411255s-0.5629883,1.5103989-2.696991,2.169426    C56.71875,77.578125,54.6169968,77.2773209,54.6169968,77.2773209z" fill="#85B716" opacity="0.4"/><path d="M64.5106735,76.7863007c0.5742188,0.4053497,1.5159683,0.8345947,2.9293823,0.8345947    c2.0818253,0,3.6706772-1.0670624,4.3597488-2.7542877c0,0-1.4944839,1.8785782-3.3154297,2.2427673    C66.375,77.53125,64.5106735,76.7863007,64.5106735,76.7863007z" fill="#85B716" opacity="0.4"/><path d="M72.8202744,76.7100449c0.678894,0.614296,1.7092438,0.9358978,2.9132385,0.9358978    c2.958168,0,3.9111023-1.6345673,3.9111023-1.6345673S78.5542374,76.8696671,76.875,77.078125    C74.609375,77.359375,72.8202744,76.7100449,72.8202744,76.7100449z" fill="#85B716" opacity="0.4"/><path d="M89.5531082,68.4877701" fill="#85B716" opacity="0.4"/><path d="M83.2490311,80.6536179H85.50737l2.3644638-4.6406021    c0,0-1.6093521,2.6542664-2.2155838,3.4713593C84.9374847,80.453125,83.2490311,80.6536179,83.2490311,80.6536179z" fill="#85B716" opacity="0.4"/></g></g></g></svg>