<?xml version="1.0" encoding="UTF-8"?>
<svg width="10px" height="19px" viewBox="0 0 10 19" version="1.1" xmlns="http://www.w3.org/2000/svg" xmlns:xlink="http://www.w3.org/1999/xlink">
    <!-- Generator: Sketch 41.2 (35397) - http://www.bohemiancoding.com/sketch -->
    <title>facebook-logo</title>
    <desc>Created with Sketch.</desc>
    <defs></defs>
    <g id="Reset-Password" stroke="none" stroke-width="1" fill="none" fill-rule="evenodd">
        <g id="Reset-Password-2.0" transform="translate(-1183.000000, -1001.000000)" fill="#FFFFFF">
            <g id="footer" transform="translate(0.000000, 939.000000)">
                <g id="socials" transform="translate(1043.000000, 44.000000)">
                    <g id="facebook" transform="translate(116.000000, 0.000000)">
                        <g id="facebook-logo" transform="translate(24.000000, 18.000000)">
                            <g id="Page-1">
                                <g id="Acceler-List-Green--TRUE-Copy">
                                    <g id="Footer">
                                        <g id="facebook">
                                            <path d="M9.6242844,0.0037062 L7.2254294,0 C4.5307163,0 2.7887622,1.8355614 2.7887622,4.6759994 L2.7887622,6.8322713 L0.3766777,6.8322713 C0.1690961,6.8322713 0,7.0049806 0,7.2191995 L0,10.343533 C0,10.5567635 0.1690961,10.7304611 0.3766777,10.7304611 L2.7887622,10.7304611 L2.7887622,18.6130719 C2.7887622,18.8263024 2.9578583,19 3.1664021,19 L6.3121182,19 C6.520662,19 6.689758,18.8263024 6.689758,18.6130719 L6.689758,10.7304611 L9.5095492,10.7304611 C9.718093,10.7304611 9.8864675,10.5567635 9.8864675,10.343533 L9.8881512,7.2191995 C9.8881512,7.1169081 9.8477414,7.0185701 9.7772646,6.9451871 C9.7067879,6.8727925 9.611055,6.8322713 9.5105114,6.8322713 L6.689758,6.8322713 L6.689758,5.0043694 C6.689758,4.1259981 6.8937317,3.6800177 8.0071679,3.6800177 L9.6233223,3.6790294 C9.8318661,3.6790294 10,3.5053317 10,3.2921012 L10,0.3918697 C10,0.1774038 9.8318661,0.0046945 9.6242844,0.0037062 Z" id="facebook-logo"></path>
                                        </g>
                                    </g>
                                </g>
                            </g>
                        </g>
                    </g>
                </g>
            </g>
        </g>
    </g>
</svg>