<?xml version="1.0" encoding="UTF-8"?>
<svg width="10px" height="19px" viewBox="0 0 10 19" version="1.1" xmlns="http://www.w3.org/2000/svg" xmlns:xlink="http://www.w3.org/1999/xlink">
    <!-- Generator: Sketch 47.1 (45422) - http://www.bohemiancoding.com/sketch -->
    <title>facebook-logo</title>
    <desc>Created with Sketch.</desc>
    <defs></defs>
    <g id="Page-1" stroke="none" stroke-width="1" fill="none" fill-rule="evenodd">
        <g id="Acceler-List-Green--TRUE-Copy" transform="translate(-1586.000000, -7723.000000)" fill="#FFFFFF">
            <g id="Footer" transform="translate(0.000000, 7662.000000)">
                <g id="facebook" transform="translate(1562.000000, 41.000000)">
                    <path d="M33.6242844,20.0037062 L31.2254294,20 C28.5307163,20 26.7887622,21.8355614 26.7887622,24.6759994 L26.7887622,26.8322713 L24.3766777,26.8322713 C24.1690961,26.8322713 24,27.0049806 24,27.2191995 L24,30.343533 C24,30.5567635 24.1690961,30.7304611 24.3766777,30.7304611 L26.7887622,30.7304611 L26.7887622,38.6130719 C26.7887622,38.8263024 26.9578583,39 27.1664021,39 L30.3121182,39 C30.520662,39 30.689758,38.8263024 30.689758,38.6130719 L30.689758,30.7304611 L33.5095492,30.7304611 C33.718093,30.7304611 33.8864675,30.5567635 33.8864675,30.343533 L33.8881512,27.2191995 C33.8881512,27.1169081 33.8477414,27.0185701 33.7772646,26.9451871 C33.7067879,26.8727925 33.611055,26.8322713 33.5105114,26.8322713 L30.689758,26.8322713 L30.689758,25.0043694 C30.689758,24.1259981 30.8937317,23.6800177 32.0071679,23.6800177 L33.6233223,23.6790294 C33.8318661,23.6790294 34,23.5053317 34,23.2921012 L34,20.3918697 C34,20.1774038 33.8318661,20.0046945 33.6242844,20.0037062 Z" id="facebook-logo"></path>
                </g>
            </g>
        </g>
    </g>
</svg>