<?xml version="1.0" encoding="UTF-8"?>
<svg width="80px" height="69px" viewBox="0 0 80 69" version="1.1" xmlns="http://www.w3.org/2000/svg" xmlns:xlink="http://www.w3.org/1999/xlink">
    <!-- Generator: Sketch 47.1 (45422) - http://www.bohemiancoding.com/sketch -->
    <title>icon copy 2</title>
    <desc>Created with Sketch.</desc>
    <defs></defs>
    <g id="Page-1" stroke="none" stroke-width="1" fill="none" fill-rule="evenodd">
        <g id="Acceler-List-Green--TRUE-Copy" transform="translate(-916.000000, -1321.000000)">
            <g id="Managing-FBA" transform="translate(0.000000, -339.000000)">
                <g id="Block-2-(-text-)" transform="translate(242.000000, 1469.000000)">
                    <g id="Group" transform="translate(0.000000, 185.000000)">
                        <g id="txt-2" transform="translate(486.000000, 0.000000)">
                            <g id="icon-copy-2" transform="translate(188.000000, 0.000000)">
                                <rect id="Rectangle-3" x="0" y="0" width="80" height="80"></rect>
                                <path d="M4.28571429,6 C1.92522286,6 0,7.92522286 0,10.2857143 L0,70.2857143 C0,72.6462057 1.92522286,74.5714286 4.28571429,74.5714286 L75.7142857,74.5714286 C78.0747771,74.5714286 80,72.6462057 80,70.2857143 L80,10.2857143 C80,7.92522286 78.0747771,6 75.7142857,6 L4.28571429,6 Z M4.28571429,8.85714286 L75.7142857,8.85714286 C76.5011157,8.85714286 77.1428571,9.49888429 77.1428571,10.2857143 L77.1428571,70.2857143 C77.1428571,71.0725443 76.5011157,71.7142857 75.7142857,71.7142857 L4.28571429,71.7142857 C3.49888429,71.7142857 2.85714286,71.0725443 2.85714286,70.2857143 L2.85714286,23.1428571 L61.4285714,23.1428571 C62.2209829,23.1428571 62.8571429,22.5011157 62.8571429,21.7142857 C62.8571429,20.9274557 62.2209829,20.2857143 61.4285714,20.2857143 L2.85714286,20.2857143 L2.85714286,10.2857143 C2.85714286,9.49888429 3.49888429,8.85714286 4.28571429,8.85714286 Z M8.57142857,11.7142857 C7.77901857,11.7142857 7.14285714,12.3560271 7.14285714,13.1428571 L7.14285714,16 C7.14285714,16.78683 7.77901857,17.4285714 8.57142857,17.4285714 C9.36384,17.4285714 10,16.78683 10,16 L10,13.1428571 C10,12.3560271 9.36384,11.7142857 8.57142857,11.7142857 Z M15.7142857,11.7142857 C14.9218757,11.7142857 14.2857143,12.3560271 14.2857143,13.1428571 L14.2857143,16 C14.2857143,16.78683 14.9218757,17.4285714 15.7142857,17.4285714 C16.5066971,17.4285714 17.1428571,16.78683 17.1428571,16 L17.1428571,13.1428571 C17.1428571,12.3560271 16.5066971,11.7142857 15.7142857,11.7142857 Z M22.8571429,11.7142857 C22.0647329,11.7142857 21.4285714,12.3560271 21.4285714,13.1428571 L21.4285714,16 C21.4285714,16.78683 22.0647329,17.4285714 22.8571429,17.4285714 C23.6495543,17.4285714 24.2857143,16.78683 24.2857143,16 L24.2857143,13.1428571 C24.2857143,12.3560271 23.6495543,11.7142857 22.8571429,11.7142857 Z M30,11.7142857 C29.20759,11.7142857 28.5714286,12.3560271 28.5714286,13.1428571 L28.5714286,16 C28.5714286,16.78683 29.20759,17.4285714 30,17.4285714 C30.7924114,17.4285714 31.4285714,16.78683 31.4285714,16 L31.4285714,13.1428571 C31.4285714,12.3560271 30.7924114,11.7142857 30,11.7142857 Z M37.1428571,11.7142857 C36.3504471,11.7142857 35.7142857,12.3560271 35.7142857,13.1428571 L35.7142857,16 C35.7142857,16.78683 36.3504471,17.4285714 37.1428571,17.4285714 C37.9352686,17.4285714 38.5714286,16.78683 38.5714286,16 L38.5714286,13.1428571 C38.5714286,12.3560271 37.9352686,11.7142857 37.1428571,11.7142857 Z M44.2857143,11.7142857 C43.4933043,11.7142857 42.8571429,12.3560271 42.8571429,13.1428571 L42.8571429,16 C42.8571429,16.78683 43.4933043,17.4285714 44.2857143,17.4285714 C45.0781257,17.4285714 45.7142857,16.78683 45.7142857,16 L45.7142857,13.1428571 C45.7142857,12.3560271 45.0781257,11.7142857 44.2857143,11.7142857 Z M51.4285714,11.7142857 C50.6361614,11.7142857 50,12.3560271 50,13.1428571 L50,16 C50,16.78683 50.6361614,17.4285714 51.4285714,17.4285714 C52.2209829,17.4285714 52.8571429,16.78683 52.8571429,16 L52.8571429,13.1428571 C52.8571429,12.3560271 52.2209829,11.7142857 51.4285714,11.7142857 Z M58.5714286,11.7142857 C57.7790186,11.7142857 57.1428571,12.3560271 57.1428571,13.1428571 L57.1428571,16 C57.1428571,16.78683 57.7790186,17.4285714 58.5714286,17.4285714 C59.36384,17.4285714 60,16.78683 60,16 L60,13.1428571 C60,12.3560271 59.36384,11.7142857 58.5714286,11.7142857 Z M65.7142857,11.7142857 C64.9218757,11.7142857 64.2857143,12.3560271 64.2857143,13.1428571 L64.2857143,16 C64.2857143,16.78683 64.9218757,17.4285714 65.7142857,17.4285714 C66.5066971,17.4285714 67.1428571,16.78683 67.1428571,16 L67.1428571,13.1428571 C67.1428571,12.3560271 66.5066971,11.7142857 65.7142857,11.7142857 Z M72.8571429,11.7142857 C72.0647329,11.7142857 71.4285714,12.3560271 71.4285714,13.1428571 L71.4285714,16 C71.4285714,16.78683 72.0647329,17.4285714 72.8571429,17.4285714 C73.6495543,17.4285714 74.2857143,16.78683 74.2857143,16 L74.2857143,13.1428571 C74.2857143,12.3560271 73.6495543,11.7142857 72.8571429,11.7142857 Z M67.1428571,20.2857143 C66.3504471,20.2857143 65.7142857,20.9274557 65.7142857,21.7142857 C65.7142857,22.5011157 66.3504471,23.1428571 67.1428571,23.1428571 L72.8571429,23.1428571 C73.6495543,23.1428571 74.2857143,22.5011157 74.2857143,21.7142857 C74.2857143,20.9274557 73.6495543,20.2857143 72.8571429,20.2857143 L67.1428571,20.2857143 Z M72.8571429,27.4285714 C72.49442,27.4285714 72.1261157,27.56808 71.8470986,27.8470986 L61.8359371,37.8582586 C61.2779014,37.5904014 60.6584829,37.4285714 60,37.4285714 C58.9676343,37.4285714 58.0301343,37.8136157 57.2935271,38.4218757 L49.9107143,33.9966514 C49.9665186,33.7232143 50,33.4330357 50,33.1428571 C50,30.7823657 48.0747771,28.8571429 45.7142857,28.8571429 C43.3537943,28.8571429 41.4285714,30.7823657 41.4285714,33.1428571 C41.4285714,33.7232143 41.5457586,34.27567 41.7578129,34.7834829 L33.4598214,42.25 C32.8515629,41.9207586 32.1651786,41.7142857 31.4285714,41.7142857 C30.15067,41.7142857 29.0122771,42.2890629 28.2310271,43.18192 L21.41183,40.4531257 C21.4174114,40.3973214 21.4285714,40.3415186 21.4285714,40.2857143 C21.4285714,37.9252229 19.5033486,36 17.1428571,36 C14.7823657,36 12.8571429,37.9252229 12.8571429,40.2857143 C12.8571429,40.69308 12.9352686,41.0837057 13.0412943,41.46317 L6.31696429,46.2678571 C5.67522286,46.7254471 5.52455429,47.6183043 5.98214286,48.2544643 C6.26116143,48.64509 6.69642857,48.8571429 7.14285714,48.8571429 C7.43303571,48.8571429 7.71763429,48.7678571 7.96875,48.5892857 L14.6875,43.7901786 C15.3850443,44.28125 16.2276786,44.5714286 17.1428571,44.5714286 C18.4207586,44.5714286 19.5591514,43.9966514 20.3404014,43.1037943 L27.1595986,45.83259 C27.1540186,45.8883929 27.1428571,45.9441971 27.1428571,46 C27.1428571,48.3604914 29.06808,50.2857143 31.4285714,50.2857143 C33.7890629,50.2857143 35.7142857,48.3604914 35.7142857,46 C35.7142857,45.4196429 35.5970986,44.8671871 35.3850443,44.3593757 L43.6830357,36.8928571 C44.2912943,37.2220986 44.9776786,37.4285714 45.7142857,37.4285714 C46.7466514,37.4285714 47.6841514,37.0435271 48.4207586,36.4352686 L55.8035714,40.8604914 C55.7477686,41.1339286 55.7142857,41.4241071 55.7142857,41.7142857 C55.7142857,44.0747771 57.6395086,46 60,46 C62.3604914,46 64.2857143,44.0747771 64.2857143,41.7142857 C64.2857143,41.0558043 64.1238843,40.4363843 63.8560271,39.8783486 L73.8671871,29.8671871 C74.4252229,29.3091514 74.4252229,28.4051343 73.8671871,27.8470986 C73.58817,27.56808 73.2198657,27.4285714 72.8571429,27.4285714 Z M45.7142857,31.47433 C46.6350443,31.47433 47.3828129,32.2220986 47.3828129,33.1428571 C47.3828129,34.0636157 46.6350443,34.8113843 45.7142857,34.8113843 C44.7935271,34.8113843 44.0457586,34.0636157 44.0457586,33.1428571 C44.0457586,32.2220986 44.7935271,31.47433 45.7142857,31.47433 Z M17.1428571,38.6171871 C18.0636157,38.6171871 18.8113843,39.3649557 18.8113843,40.2857143 C18.8113843,41.2064729 18.0636157,41.9542414 17.1428571,41.9542414 C16.2220986,41.9542414 15.47433,41.2064729 15.47433,40.2857143 C15.47433,39.3649557 16.2220986,38.6171871 17.1428571,38.6171871 Z M60,39.9899557 C60.9486614,39.9899557 61.72433,40.7656257 61.72433,41.7142857 C61.72433,42.6629471 60.9542414,43.4386157 60,43.4386157 C59.0457586,43.4386157 58.27567,42.6629471 58.27567,41.7142857 C58.27567,40.7656257 59.05134,39.9899557 60,39.9899557 Z M31.4285714,44.3314729 C32.34933,44.3314729 33.0970986,45.0792414 33.0970986,46 C33.0970986,46.9207586 32.34933,47.6685271 31.4285714,47.6685271 C30.5078129,47.6685271 29.7600443,46.9207586 29.7600443,46 C29.7600443,45.0792414 30.5078129,44.3314729 31.4285714,44.3314729 Z M41.4285714,46 C40.6361614,46 40,46.6417414 40,47.4285714 L40,66 L37.1428571,66 L37.1428571,58.8571429 C37.1428571,58.0703129 36.5066971,57.4285714 35.7142857,57.4285714 L27.1428571,57.4285714 C26.3504471,57.4285714 25.7142857,58.0703129 25.7142857,58.8571429 L25.7142857,66 L22.8571429,66 L22.8571429,53.1428571 C22.8571429,52.3560271 22.2209829,51.7142857 21.4285714,51.7142857 L12.8571429,51.7142857 C12.0647329,51.7142857 11.4285714,52.3560271 11.4285714,53.1428571 L11.4285714,66 L10,66 C9.20759,66 8.57142857,66.6417414 8.57142857,67.4285714 C8.57142857,68.2154014 9.20759,68.8571429 10,68.8571429 L67.1428571,68.8571429 C67.9352686,68.8571429 68.5714286,68.2154014 68.5714286,67.4285714 C68.5714286,66.6417414 67.9352686,66 67.1428571,66 L65.7142857,66 L65.7142857,56 C65.7142857,55.21317 65.0781257,54.5714286 64.2857143,54.5714286 L55.7142857,54.5714286 C54.9218757,54.5714286 54.2857143,55.21317 54.2857143,56 L54.2857143,66 L51.4285714,66 L51.4285714,47.4285714 C51.4285714,46.6417414 50.7924114,46 50,46 L41.4285714,46 Z M42.8571429,48.8571429 L48.5714286,48.8571429 L48.5714286,66 L42.8571429,66 L42.8571429,48.8571429 Z M14.2857143,54.5714286 L20,54.5714286 L20,66 L14.2857143,66 L14.2857143,54.5714286 Z M57.1428571,57.4285714 L62.8571429,57.4285714 L62.8571429,66 L57.1428571,66 L57.1428571,57.4285714 Z M28.5714286,60.2857143 L34.2857143,60.2857143 L34.2857143,66 L28.5714286,66 L28.5714286,60.2857143 Z" id="Shape" fill="#64CB31" fill-rule="nonzero"></path>
                            </g>
                        </g>
                    </g>
                </g>
            </g>
        </g>
    </g>
</svg>