<?xml version="1.0" encoding="UTF-8"?>
<svg width="19px" height="19px" viewBox="0 0 19 19" version="1.1" xmlns="http://www.w3.org/2000/svg" xmlns:xlink="http://www.w3.org/1999/xlink">
    <!-- Generator: Sketch 47.1 (45422) - http://www.bohemiancoding.com/sketch -->
    <title>Shape</title>
    <desc>Created with Sketch.</desc>
    <defs></defs>
    <g id="Page-1" stroke="none" stroke-width="1" fill="none" fill-rule="evenodd">
        <g id="Acceler-List-Green--BLOG" transform="translate(-870.000000, -590.000000)" fill-rule="nonzero" fill="#FFFFFF">
            <g id="Group-8" transform="translate(868.000000, 587.000000)">
                <g id="tag">
                    <g id="icons8-services">
                        <path d="M12.8677487,3 C12.2795307,3 11.7198681,3.23414451 11.3143974,3.6510377 L2.63390442,12.4000608 C1.78869853,13.2509772 1.78869853,14.6444248 2.63390442,15.4953411 L8.50465885,21.3660956 C9.35557523,22.2113015 10.7490228,22.2113015 11.5999406,21.3660956 L20.3546742,12.6856026 C20.7658555,12.2744214 21,11.7147588 21,11.1322513 L21,5.19296664 C21,3.98797679 20.0120232,3 18.8070334,3 L12.8677487,3 Z M12.8677487,4.46197776 L18.8070334,4.46197776 C19.2182146,4.46197776 19.5380222,4.78178539 19.5380222,5.19296664 L19.5380222,11.1322513 C19.5380222,11.3264209 19.4580711,11.5148786 19.3210106,11.651939 L10.5719875,20.332432 C10.2807338,20.6236857 9.82957619,20.6179738 9.54403439,20.332432 L3.67327996,14.4559671 C3.37631573,14.1647133 3.37631573,13.7192662 3.66756801,13.428014 L12.348061,4.67899081 C12.4851214,4.5419304 12.6735805,4.46197776 12.8677487,4.46197776 Z M17.3450556,5.92395552 C16.9395848,5.92395552 16.6140667,6.24947364 16.6140667,6.65494439 C16.6140667,7.06041515 16.9395848,7.38593327 17.3450556,7.38593327 C17.7505264,7.38593327 18.0760445,7.06041515 18.0760445,6.65494439 C18.0760445,6.24947364 17.7505264,5.92395552 17.3450556,5.92395552 Z" id="Shape"></path>
                    </g>
                </g>
            </g>
        </g>
    </g>
</svg>