<?xml version="1.0" encoding="UTF-8"?>
<svg width="80px" height="67px" viewBox="0 0 80 67" version="1.1" xmlns="http://www.w3.org/2000/svg" xmlns:xlink="http://www.w3.org/1999/xlink">
    <!-- Generator: Sketch 47.1 (45422) - http://www.bohemiancoding.com/sketch -->
    <title>icon</title>
    <desc>Created with Sketch.</desc>
    <defs></defs>
    <g id="Page-1" stroke="none" stroke-width="1" fill="none" fill-rule="evenodd">
        <g id="Acceler-List-Green--TRUE-Copy" transform="translate(-429.000000, -1321.000000)">
            <g id="Managing-FBA" transform="translate(0.000000, -339.000000)">
                <g id="Block-2-(-text-)" transform="translate(242.000000, 1469.000000)">
                    <g id="Group" transform="translate(0.000000, 185.000000)">
                        <g id="txt-1">
                            <g id="icon" transform="translate(187.000000, 0.000000)">
                                <rect id="Rectangle-3" x="0" y="0" width="80" height="80"></rect>
                                <path d="M33.1041667,6 C32.0364587,6 31.0312507,6.41666667 30.2760413,7.17187467 L27.8385413,9.60937467 C27.0833333,10.364584 26.6666667,11.369792 26.6666667,12.4375 L26.6666667,14 L14.2083333,14 C12.427084,14 10.755208,14.692708 9.494792,15.9531253 L5.72916667,19.7239587 L5.72395867,19.7291667 L1.95312533,23.494792 C0.692708,24.755208 0,26.427084 0,28.2083333 L0,68.6666667 C0,70.869792 1.79687467,72.6666667 4,72.6666667 L76,72.6666667 C78.2031253,72.6666667 80,70.869792 80,68.6666667 L80,28.2083333 C80,26.427084 79.307292,24.755208 78.0468747,23.494792 L74.2760413,19.7291667 L74.2708333,19.7239587 L70.505208,15.9531253 C69.244792,14.692708 67.5729173,14 65.7916667,14 L53.3333333,14 L53.3333333,12.4375 C53.3333333,11.369792 52.9166667,10.364584 52.1614587,9.60937467 L49.7239587,7.17187467 C48.9687507,6.41666667 47.9635413,6 46.8958333,6 L33.1041667,6 Z M33.1041667,8.66666667 L46.8958333,8.66666667 C47.25,8.66666667 47.5885413,8.807292 47.8385413,9.057292 L50.2760413,11.494792 C50.5208333,11.744792 50.6666667,12.0885413 50.6666667,12.4375 L50.6666667,14 L29.3333333,14 L29.3333333,12.4375 C29.3333333,12.0885413 29.4739587,11.744792 29.7239587,11.494792 L32.1614587,9.057292 C32.4114587,8.807292 32.75,8.66666667 33.1041667,8.66666667 Z M14.2083333,16.6666667 L65.7916667,16.6666667 C66.8437507,16.6666667 67.875,17.0937507 68.619792,17.8385413 L72,21.2187507 L72,23.3333333 C72,24.0729173 72.5989587,24.6666667 73.3333333,24.6666667 C73.9062507,24.6666667 74.3854173,24.302084 74.5729173,23.7916667 L76.1614587,25.380208 C76.9166667,26.1354173 77.3333333,27.1406253 77.3333333,28.2083333 L77.3333333,38 L66.6666667,38 C66.6666667,36.5312507 65.4687507,35.3333333 64,35.3333333 L56,35.3333333 C54.5312507,35.3333333 53.3333333,36.5312507 53.3333333,38 L26.6666667,38 C26.6666667,36.5312507 25.4687507,35.3333333 24,35.3333333 L16,35.3333333 C14.5312507,35.3333333 13.3333333,36.5312507 13.3333333,38 L2.66666667,38 L2.66666667,28.2083333 C2.66666667,27.1406253 3.08333333,26.1354173 3.83854133,25.380208 L5.427084,23.7916667 C5.614584,24.302084 6.09375067,24.6666667 6.66666667,24.6666667 C7.40104133,24.6666667 8,24.0729173 8,23.3333333 L8,21.2187507 L11.380208,17.8385413 C12.125,17.0937507 13.1562507,16.6666667 14.2083333,16.6666667 Z M13.3333333,19.3333333 C12.5989587,19.3333333 12,19.927084 12,20.6666667 L12,23.3333333 C12,24.0729173 12.5989587,24.6666667 13.3333333,24.6666667 C14.067708,24.6666667 14.6666667,24.0729173 14.6666667,23.3333333 L14.6666667,20.6666667 C14.6666667,19.927084 14.067708,19.3333333 13.3333333,19.3333333 Z M20,19.3333333 C19.2656253,19.3333333 18.6666667,19.927084 18.6666667,20.6666667 L18.6666667,23.3333333 C18.6666667,24.0729173 19.2656253,24.6666667 20,24.6666667 C20.7343747,24.6666667 21.3333333,24.0729173 21.3333333,23.3333333 L21.3333333,20.6666667 C21.3333333,19.927084 20.7343747,19.3333333 20,19.3333333 Z M26.6666667,19.3333333 C25.932292,19.3333333 25.3333333,19.927084 25.3333333,20.6666667 L25.3333333,23.3333333 C25.3333333,24.0729173 25.932292,24.6666667 26.6666667,24.6666667 C27.4010413,24.6666667 28,24.0729173 28,23.3333333 L28,20.6666667 C28,19.927084 27.4010413,19.3333333 26.6666667,19.3333333 Z M33.3333333,19.3333333 C32.5989587,19.3333333 32,19.927084 32,20.6666667 L32,23.3333333 C32,24.0729173 32.5989587,24.6666667 33.3333333,24.6666667 C34.067708,24.6666667 34.6666667,24.0729173 34.6666667,23.3333333 L34.6666667,20.6666667 C34.6666667,19.927084 34.067708,19.3333333 33.3333333,19.3333333 Z M40,19.3333333 C39.2656253,19.3333333 38.6666667,19.927084 38.6666667,20.6666667 L38.6666667,23.3333333 C38.6666667,24.0729173 39.2656253,24.6666667 40,24.6666667 C40.7343747,24.6666667 41.3333333,24.0729173 41.3333333,23.3333333 L41.3333333,20.6666667 C41.3333333,19.927084 40.7343747,19.3333333 40,19.3333333 Z M46.6666667,19.3333333 C45.932292,19.3333333 45.3333333,19.927084 45.3333333,20.6666667 L45.3333333,23.3333333 C45.3333333,24.0729173 45.932292,24.6666667 46.6666667,24.6666667 C47.4010413,24.6666667 48,24.0729173 48,23.3333333 L48,20.6666667 C48,19.927084 47.4010413,19.3333333 46.6666667,19.3333333 Z M53.3333333,19.3333333 C52.5989587,19.3333333 52,19.927084 52,20.6666667 L52,23.3333333 C52,24.0729173 52.5989587,24.6666667 53.3333333,24.6666667 C54.067708,24.6666667 54.6666667,24.0729173 54.6666667,23.3333333 L54.6666667,20.6666667 C54.6666667,19.927084 54.067708,19.3333333 53.3333333,19.3333333 Z M60,19.3333333 C59.2656253,19.3333333 58.6666667,19.927084 58.6666667,20.6666667 L58.6666667,23.3333333 C58.6666667,24.0729173 59.2656253,24.6666667 60,24.6666667 C60.7343747,24.6666667 61.3333333,24.0729173 61.3333333,23.3333333 L61.3333333,20.6666667 C61.3333333,19.927084 60.7343747,19.3333333 60,19.3333333 Z M66.6666667,19.3333333 C65.932292,19.3333333 65.3333333,19.927084 65.3333333,20.6666667 L65.3333333,23.3333333 C65.3333333,24.0729173 65.932292,24.6666667 66.6666667,24.6666667 C67.4010413,24.6666667 68,24.0729173 68,23.3333333 L68,20.6666667 C68,19.927084 67.4010413,19.3333333 66.6666667,19.3333333 Z M16,38 L24,38 L24,43.3333333 L16,43.3333333 L16,38 Z M56,38 L64,38 L64,43.3333333 L56,43.3333333 L56,38 Z M2.66666667,40.6666667 L13.3333333,40.6666667 L13.3333333,43.3333333 C13.3333333,44.802084 14.5312507,46 16,46 L24,46 C25.4687507,46 26.6666667,44.802084 26.6666667,43.3333333 L26.6666667,40.6666667 L53.3333333,40.6666667 L53.3333333,43.3333333 C53.3333333,44.802084 54.5312507,46 56,46 L64,46 C65.4687507,46 66.6666667,44.802084 66.6666667,43.3333333 L66.6666667,40.6666667 L77.3333333,40.6666667 L77.3333333,68.6666667 C77.3333333,69.4010413 76.7343747,70 76,70 L4,70 C3.26562533,70 2.66666667,69.4010413 2.66666667,68.6666667 L2.66666667,40.6666667 Z M6.66666667,64.6666667 C5.932292,64.6666667 5.33333333,65.2604173 5.33333333,66 C5.33333333,66.739584 5.932292,67.3333333 6.66666667,67.3333333 L62.6666667,67.3333333 C63.4010413,67.3333333 64,66.739584 64,66 C64,65.2604173 63.4010413,64.6666667 62.6666667,64.6666667 L6.66666667,64.6666667 Z M68,64.6666667 C67.2656253,64.6666667 66.6666667,65.2604173 66.6666667,66 C66.6666667,66.739584 67.2656253,67.3333333 68,67.3333333 L73.3333333,67.3333333 C74.067708,67.3333333 74.6666667,66.739584 74.6666667,66 C74.6666667,65.2604173 74.067708,64.6666667 73.3333333,64.6666667 L68,64.6666667 Z" id="Shape" fill="#64CB31" fill-rule="nonzero"></path>
                            </g>
                        </g>
                    </g>
                </g>
            </g>
        </g>
    </g>
</svg>