<?xml version="1.0" encoding="UTF-8"?>
<svg width="94px" height="94px" viewBox="0 0 94 94" version="1.1" xmlns="http://www.w3.org/2000/svg" xmlns:xlink="http://www.w3.org/1999/xlink">
    <!-- Generator: Sketch 47.1 (45422) - http://www.bohemiancoding.com/sketch -->
    <title>Group 5</title>
    <desc>Created with Sketch.</desc>
    <defs></defs>
    <g id="Page-1" stroke="none" stroke-width="1" fill="none" fill-rule="evenodd">
        <g id="Acceler-List-Green--TRUE-Copy" transform="translate(-911.000000, -1688.000000)">
            <g id="Managing-FBA" transform="translate(0.000000, -339.000000)">
                <g id="Photo" transform="translate(243.000000, 2004.000000)">
                    <g id="Group-5" transform="translate(645.000000, 0.000000)">
                        <g id="Group-12" transform="translate(70.000000, 70.000000) rotate(-345.000000) translate(-70.000000, -70.000000) translate(13.000000, 13.000000)" fill="#64CB31">
                            <rect id="Rectangle-3-Copy" fill-opacity="0.799999952" transform="translate(56.709511, 57.985024) rotate(-15.000000) translate(-56.709511, -57.985024) " x="21.7095108" y="22.9850236" width="70" height="70" rx="15"></rect>
                            <rect id="Rectangle-3" fill-opacity="0.5" transform="translate(56.710227, 57.985740) rotate(-15.000000) translate(-56.710227, -57.985740) " x="15.5702275" y="16.8457403" width="82.2799988" height="82.2799988" rx="10"></rect>
                            <rect id="Rectangle-3-Copy-2" fill-opacity="0.200000003" transform="translate(57.000716, 57.000716) rotate(-15.000000) translate(-57.000716, -57.000716) " x="10.8607167" y="10.8607167" width="92.2799988" height="92.2799988" rx="10"></rect>
                        </g>
                        <g id="icons8-services" transform="translate(48.000000, 54.000000)" fill-rule="nonzero" fill="#FFFFFF">
                            <path d="M22,0 C16.9619148,0 12.5791023,3.5019545 11.3652357,8.3144545 C8.400392,8.7548835 6.04785225,11.1181647 5.5859375,14.190429 C2.2988295,15.3076165 0,18.4443352 0,22 C0,26.543946 3.706054,30.25 8.25,30.25 L16.5,30.25 L16.5,27.5 L8.25,27.5 C5.2207045,27.5 2.75,25.0292982 2.75,22 C2.75,19.3896477 4.60839775,17.1230482 7.15429825,16.6074232 L8.28222725,16.2851562 L8.25,15.125 C8.25,12.8476562 10.0976562,11 12.2353523,10.9892585 L12.5146477,11.0214857 L13.7070312,11.0214857 L13.8789062,9.82910225 C14.4482415,5.79003975 17.9394545,2.75 22,2.75 C25.3193353,2.75 28.3056647,4.7265625 29.6054688,7.77734375 L30.0888665,8.95898575 L31.2919915,8.55078125 C31.9150397,8.346679 32.4736335,8.25 33,8.25 C36.0292983,8.25 38.5,10.7207045 38.5,13.75 C38.5,14.3945312 38.3710938,15.049804 38.1132812,15.7050795 L37.7265625,16.7578125 L38.671875,17.359375 C40.2832045,18.3798835 41.25,20.109375 41.25,22 C41.25,25.0292982 38.7792983,27.5 35.75,27.5 L24.75,27.5 L24.75,30.25 L35.75,30.25 C40.293946,30.25 44,26.543946 44,22 C44,19.5292982 42.9042983,17.2197272 41.0136733,15.6621107 C41.174804,15.028321 41.25,14.3837897 41.25,13.75 C41.25,8.744142 36.8242188,4.66211075 31.603517,5.62890625 C29.6699233,2.18066475 26.028321,0 22,0 Z M20.625,16.5 L13.75,24.75 L19.25,24.75 L19.25,35.75 L22,35.75 L22,24.75 L27.5,24.75 L20.625,16.5 Z" id="Shape"></path>
                        </g>
                    </g>
                </g>
            </g>
        </g>
    </g>
</svg>