<?xml version="1.0" encoding="UTF-8"?>
<svg width="77px" height="63px" viewBox="0 0 77 63" version="1.1" xmlns="http://www.w3.org/2000/svg" xmlns:xlink="http://www.w3.org/1999/xlink">
    <!-- Generator: Sketch 47.1 (45422) - http://www.bohemiancoding.com/sketch -->
    <title>ic_step2</title>
    <desc>Created with Sketch.</desc>
    <defs></defs>
    <g id="Page-1" stroke="none" stroke-width="1" fill="none" fill-rule="evenodd">
        <g id="Acceler-List-Green--TRUE-Copy" transform="translate(-251.000000, -3858.000000)" fill="#63CC2F">
            <g id="Enterprise-Copy" transform="translate(242.000000, 3580.000000)">
                <g id="screens" transform="translate(0.000000, 121.000000)">
                    <g id="ic_step2" transform="translate(1.000000, 142.000000)">
                        <g id="browser" transform="translate(8.000000, 15.000000)">
                            <g>
                                <path d="M23.5218457,7.92572922 L43.2786621,7.92572922 C43.9313574,7.92572922 44.4602813,7.39928266 44.4602813,6.74997862 C44.4602813,6.10067458 43.9313574,5.57422803 43.2786621,5.57422803 L23.5218457,5.57422803 C22.8691504,5.57422803 22.3402266,6.10067458 22.3402266,6.74997862 C22.3402266,7.39928266 22.8693008,7.92572922 23.5218457,7.92572922" id="Fill-1"></path>
                                <path d="M7.10896484,5.33704276 C7.89310156,5.33704276 8.52865234,5.96943705 8.52865234,6.74967933 C8.52865234,7.52992162 7.89310156,8.16231591 7.10896484,8.16231591 C6.32482812,8.16231591 5.68927734,7.52992162 5.68927734,6.74967933 C5.68927734,5.96943705 6.32482812,5.33704276 7.10896484,5.33704276" id="Fill-2"></path>
                                <path d="M12.5801758,5.33704276 C13.3643125,5.33704276 13.9998633,5.96943705 13.9998633,6.74967933 C13.9998633,7.52992162 13.3643125,8.16231591 12.5801758,8.16231591 C11.7960391,8.16231591 11.1604883,7.52992162 11.1604883,6.74967933 C11.1604883,5.96943705 11.7960391,5.33704276 12.5801758,5.33704276" id="Fill-3"></path>
                                <path d="M17.7460938,5.33704276 C18.5302305,5.33704276 19.1657812,5.96943705 19.1657812,6.74967933 C19.1657812,7.52992162 18.5302305,8.16231591 17.7460938,8.16231591 C16.961957,8.16231591 16.3264063,7.52992162 16.3264063,6.74967933 C16.3264063,5.96943705 16.961957,5.33704276 17.7460938,5.33704276" id="Fill-4"></path>
                                <path d="M61.9714648,5.33704276 C62.7556016,5.33704276 63.3911523,5.96943705 63.3911523,6.74967933 C63.3911523,7.52992162 62.7556016,8.16231591 61.9714648,8.16231591 C61.1873281,8.16231591 60.5517773,7.52992162 60.5517773,6.74967933 C60.5517773,5.96943705 61.1873281,5.33704276 61.9714648,5.33704276" id="Fill-5"></path>
                                <path d="M74.6367617,56.7401045 C74.6367617,58.8951235 72.8747852,60.6483492 70.7090098,60.6483492 L39.5734883,60.6483492 C37.4077129,60.6483492 35.6457363,58.8951235 35.6457363,56.7401045 L35.6457363,24.9789762 C35.6457363,22.8239572 37.4077129,21.0707316 39.5734883,21.0707316 L70.7090098,21.0707316 C72.8747852,21.0707316 74.6367617,22.8239572 74.6367617,24.9789762 L74.6367617,56.7401045 Z M18.0161953,54.5695226 C19.6888398,52.5764181 20.6340449,50.0442969 20.6340449,47.3774964 C20.6340449,41.1859881 15.5717461,36.1488314 9.34918359,36.1488314 C8.69648828,36.1488314 8.16756445,36.6751283 8.16756445,37.3245819 C8.16756445,37.9740356 8.69648828,38.5003325 9.34918359,38.5003325 C14.2686113,38.5003325 18.2708066,42.4825012 18.2708066,47.3774964 C18.2708066,50.2373373 16.8924766,52.8989002 14.5710469,54.5695226 L5.66867383,54.5695226 C3.84608984,54.5695226 2.36323828,53.0940356 2.36323828,51.2805036 L2.36323828,41.8652209 C3.20301953,40.8133753 4.27470313,39.9545701 5.48730273,39.3732043 C6.07533008,39.0915748 6.32242187,38.388848 6.03923633,37.8037411 C5.75605078,37.2187838 5.0499668,36.9729192 4.46193945,37.2546983 C3.71630273,37.6120475 3.01217383,38.0515511 2.36338867,38.5616865 L2.36338867,33.2910855 C3.22708203,32.8656485 4.12626758,32.5202708 5.04440234,32.2618361 C5.5006875,32.1334418 5.83560742,31.745715 5.89501172,31.2774798 L6.15548828,29.2215249 C6.2112832,28.7802257 6.59071875,28.4472684 7.03783008,28.4472684 L11.6811406,28.4472684 C12.1287031,28.4472684 12.5081387,28.7805249 12.5636328,29.2224228 L12.8221543,31.2815202 C12.880957,31.7497553 13.2155762,32.1379311 13.6718613,32.2667743 C14.8372383,32.5961401 15.9687773,33.0636271 17.0353477,33.6565154 C17.4495234,33.8866675 17.9614531,33.848209 18.3362266,33.5587981 L19.9858613,32.2847316 C20.3388281,32.0122304 20.8433887,32.0432067 21.1601113,32.3582067 L24.4434395,35.6250784 C24.7598613,35.9400784 24.7914434,36.4425819 24.5165293,36.7942447 L23.2362539,38.4319454 C22.9446465,38.8048575 22.9059961,39.3151425 23.1374473,39.7274109 C23.7364531,40.7936223 24.2083789,41.9261259 24.5401406,43.0936461 C24.6691758,43.5478147 25.0588379,43.8812209 25.5294102,43.9401805 L27.5957773,44.1993634 C28.0392793,44.2548812 28.3738984,44.6322827 28.3738984,45.0771734 L28.3738984,49.6975724 C28.3738984,50.1429121 28.0389785,50.5203135 27.5945742,50.5755321 L25.5253496,50.8329192 C25.0549277,50.8915796 24.6649648,51.2243872 24.5353281,51.6782565 C24.2510898,52.6735368 23.8648867,53.6438266 23.3846895,54.5692233 L18.0161953,54.5692233 L18.0161953,54.5695226 Z M5.66867383,2.48169121 L63.2594102,2.48169121 C65.0819941,2.48169121 66.5648457,3.95717815 66.5648457,5.77085986 L66.5648457,10.8668266 L55.1411738,10.8668266 C54.4884785,10.8668266 53.9595547,11.3932732 53.9595547,12.0425772 C53.9595547,12.6918812 54.4884785,13.2183278 55.1411738,13.2183278 L66.5648457,13.2183278 L66.5648457,18.7190808 L39.5734883,18.7190808 C36.1047285,18.7190808 33.282498,21.5271449 33.282498,24.9788266 L33.282498,54.5693729 L25.9966738,54.5693729 C26.2114316,54.0782423 26.4064883,53.5791805 26.5759785,53.0721876 L27.8878359,52.909076 C29.5120547,52.707057 30.7371367,51.3264442 30.7371367,49.6977221 L30.7371367,45.077323 C30.7371367,43.450247 29.513709,42.0697838 27.8912949,41.8664181 L26.5824453,41.7022589 C26.3060273,40.8717363 25.9676484,40.0597696 25.5710684,39.2753373 L26.3816738,38.2381568 C27.3870352,36.9527173 27.2719863,35.1146437 26.1144297,33.9623872 L22.8311016,30.6955154 C21.6750488,29.5446057 19.8288535,29.4292304 18.5368477,30.4272043 L17.4902793,31.2354299 C16.708248,30.8441116 15.8994473,30.5098076 15.0725996,30.2362589 L14.9086738,28.9309169 C14.7056465,27.3147648 13.3181426,26.0959169 11.6811406,26.0959169 L7.03783008,26.0959169 C5.4027832,26.0959169 4.01542969,27.3131188 3.81074805,28.9276247 L3.64576953,30.2302732 C3.2130957,30.3730333 2.78538477,30.5334513 2.36323828,30.7092827 L2.36323828,13.2183278 L48.6688125,13.2183278 C49.3215078,13.2183278 49.8504316,12.6918812 49.8504316,12.0425772 C49.8504316,11.3932732 49.3215078,10.8668266 48.6688125,10.8668266 L2.36323828,10.8668266 L2.36323828,5.77085986 C2.36323828,3.95717815 3.84608984,2.48169121 5.66867383,2.48169121 Z M70.7090098,18.7192304 L68.928084,18.7192304 L68.928084,5.77085986 C68.928084,2.66066508 66.3851289,0.130339667 63.2594102,0.130339667 L5.66867383,0.130339667 C2.54295508,0.130339667 0,2.66066508 0,5.77085986 L0,51.2805036 C0,54.3906983 2.54295508,56.9210238 5.66867383,56.9210238 L33.2871602,56.9210238 C33.3838613,60.2890546 36.1656367,63 39.5734883,63 L70.7090098,63 C74.1777695,63 77,60.1917862 77,56.7402542 L77,24.9789762 C77,21.5272945 74.1777695,18.7192304 70.7090098,18.7192304 L70.7090098,18.7192304 Z" id="Fill-7"></path>
                                <path d="M63.6271152,40.4536318 L67.4513984,36.6481924 C67.9127969,36.1889359 67.9127969,35.4446081 67.4513984,34.9853515 C66.9898496,34.5263943 66.2418066,34.5263943 65.7802578,34.9853515 L62.4248926,38.3242019 L57.6123926,29.7998979 C57.1932539,29.0576651 56.4031016,28.5979596 55.5481309,28.5979596 C55.5448223,28.5979596 55.5412129,28.5979596 55.5376035,28.5981093 C54.6787227,28.6018504 53.8881191,29.0691876 53.4739434,29.8178551 L48.4711992,38.860076 C48.156582,39.4290214 48.3647227,40.1438694 48.9365078,40.4570736 C49.5085938,40.7704276 50.2268594,40.5628717 50.5414766,39.994076 L55.5518906,30.9517055 L60.6869785,40.0536342 L57.1764102,43.5467672 L54.8609961,41.2427031 C54.3994473,40.7837458 53.6514043,40.7837458 53.1898555,41.2427031 C52.728457,41.7019596 52.728457,42.4462874 53.1898555,42.9055439 L56.3408398,46.0408789 C56.5625156,46.261304 56.8629961,46.385209 57.1764102,46.385209 C57.4898242,46.385209 57.7903047,46.261304 58.0119805,46.0408789 L61.8885996,42.1835131 L66.4901016,50.3395439 L44.8213691,50.3329596 L47.9753613,44.6319834 C48.2899785,44.063038 48.0816875,43.34819 47.5100527,43.0349857 C46.9382676,42.7216318 46.2198516,42.9291876 45.905084,43.4979834 L42.7510918,49.1991093 C42.3432324,49.9365534 42.3566172,50.8092755 42.7870352,51.534 C43.2173027,52.2584252 43.979332,52.6910451 44.8251289,52.6910451 L66.4899512,52.6910451 C67.339959,52.6910451 68.1039434,52.255133 68.5333086,51.5253207 C68.9626738,50.795209 68.9704941,49.9188955 68.5542129,49.1813017 L63.6271152,40.4536318" id="Fill-9"></path>
                            </g>
                        </g>
                    </g>
                </g>
            </g>
        </g>
    </g>
</svg>