<?xml version="1.0" encoding="UTF-8"?>
<svg width="76px" height="68px" viewBox="0 0 76 68" version="1.1" xmlns="http://www.w3.org/2000/svg" xmlns:xlink="http://www.w3.org/1999/xlink">
    <!-- Generator: Sketch 47.1 (45422) - http://www.bohemiancoding.com/sketch -->
    <title>ic_step1</title>
    <desc>Created with Sketch.</desc>
    <defs></defs>
    <g id="Page-1" stroke="none" stroke-width="1" fill="none" fill-rule="evenodd">
        <g id="Acceler-List-Green--TRUE-Copy" transform="translate(-1057.000000, -3089.000000)" fill="#63CC2F">
            <g id="Enterprise" transform="translate(242.000000, 2811.000000)">
                <g id="screens" transform="translate(0.000000, 124.000000)">
                    <g id="ic_step1" transform="translate(806.000000, 142.000000)">
                        <g id="browsers" transform="translate(9.000000, 12.000000)">
                            <g>
                                <path d="M23.6939259,7.87773304 L43.6622222,7.87773304 C44.2777778,7.87773304 44.7768889,7.37658643 44.7768889,6.75818818 C44.7768889,6.13978993 44.2777778,5.63864333 43.6622222,5.63864333 L23.6939259,5.63864333 C23.0783704,5.63864333 22.5792593,6.13978993 22.5792593,6.75818818 C22.5792593,7.37658643 23.0783704,7.87773304 23.6939259,7.87773304" id="Fill-1"></path>
                                <path d="M7.10503704,5.64161926 C7.71866667,5.64161926 8.21614815,6.1412779 8.21614815,6.757593 C8.21614815,7.3739081 7.71866667,7.87356674 7.10503704,7.87356674 C6.49140741,7.87356674 5.99392593,7.3739081 5.99392593,6.757593 C5.99392593,6.1412779 6.49140741,5.64161926 7.10503704,5.64161926" id="Fill-2"></path>
                                <path d="M12.6340741,5.64161926 C13.2477037,5.64161926 13.7451852,6.1412779 13.7451852,6.757593 C13.7451852,7.3739081 13.2477037,7.87356674 12.6340741,7.87356674 C12.0204444,7.87356674 11.522963,7.3739081 11.522963,6.757593 C11.522963,6.1412779 12.0204444,5.64161926 12.6340741,5.64161926" id="Fill-3"></path>
                                <path d="M17.8577778,5.64161926 C18.4714074,5.64161926 18.9688889,6.1412779 18.9688889,6.757593 C18.9688889,7.3739081 18.4714074,7.87356674 17.8577778,7.87356674 C17.2441481,7.87356674 16.7466667,7.3739081 16.7466667,6.757593 C16.7466667,6.1412779 17.2441481,5.64161926 17.8577778,5.64161926" id="Fill-4"></path>
                                <path d="M62.5555556,5.64161926 C63.1691852,5.64161926 63.6666667,6.1412779 63.6666667,6.757593 C63.6666667,7.3739081 63.1691852,7.87356674 62.5555556,7.87356674 C61.9419259,7.87356674 61.4444444,7.3739081 61.4444444,6.757593 C61.4444444,6.1412779 61.9419259,5.64161926 62.5555556,5.64161926" id="Fill-5"></path>
                                <path d="M7.90962963,17.3647002 C8.52518519,17.3647002 9.0242963,17.8659956 9.0242963,18.4842451 C9.0242963,19.1024945 8.52518519,19.6037899 7.90962963,19.6037899 C7.29407407,19.6037899 6.79496296,19.1024945 6.79496296,18.4842451 C6.79496296,17.8659956 7.29407407,17.3647002 7.90962963,17.3647002" id="Fill-6"></path>
                                <path d="M12.3302222,19.6031947 L26.9259259,19.6031947 C27.5414815,19.6031947 28.0405926,19.1020481 28.0405926,18.4836499 C28.0405926,17.8652516 27.5414815,17.364105 26.9259259,17.364105 L12.3302222,17.364105 C11.7146667,17.364105 11.2155556,17.8652516 11.2155556,18.4836499 C11.2155556,19.1020481 11.7145185,19.6031947 12.3302222,19.6031947" id="Fill-7"></path>
                                <path d="M63.9899259,16.2445602 L53.0162963,16.2445602 C52.4007407,16.2445602 51.9016296,16.7457068 51.9016296,17.364105 C51.9016296,17.9825033 52.4007407,18.4836499 53.0162963,18.4836499 L63.9899259,18.4836499 C64.6054815,18.4836499 65.1045926,17.9825033 65.1045926,17.364105 C65.1045926,16.7458556 64.6054815,16.2445602 63.9899259,16.2445602" id="Fill-8"></path>
                                <path d="M63.9899259,21.0585733 L53.0162963,21.0585733 C52.4007407,21.0585733 51.9016296,21.5597199 51.9016296,22.1781182 C51.9016296,22.7965164 52.4007407,23.297663 53.0162963,23.297663 L63.9899259,23.297663 C64.6054815,23.297663 65.1045926,22.7965164 65.1045926,22.1781182 C65.1045926,21.5597199 64.6054815,21.0585733 63.9899259,21.0585733" id="Fill-9"></path>
                                <path d="M7.90962963,22.0666696 C8.52518519,22.0666696 9.0242963,22.567965 9.0242963,23.1862144 C9.0242963,23.8044639 8.52518519,24.3057593 7.90962963,24.3057593 C7.29407407,24.3057593 6.79496296,23.8044639 6.79496296,23.1862144 C6.79496296,22.567965 7.29407407,22.0666696 7.90962963,22.0666696" id="Fill-10"></path>
                                <path d="M12.3302222,24.3051641 L19.9899259,24.3051641 C20.6054815,24.3051641 21.1045926,23.8040175 21.1045926,23.1856193 C21.1045926,22.567221 20.6054815,22.0660744 19.9899259,22.0660744 L12.3302222,22.0660744 C11.7146667,22.0660744 11.2155556,22.567221 11.2155556,23.1856193 C11.2155556,23.8040175 11.7145185,24.3051641 12.3302222,24.3051641" id="Fill-11"></path>
                                <path d="M7.90962963,35.947895 C8.52518519,35.947895 9.0242963,36.4491904 9.0242963,37.0674398 C9.0242963,37.6856893 8.52518519,38.1869847 7.90962963,38.1869847 C7.29407407,38.1869847 6.79496296,37.6856893 6.79496296,37.0674398 C6.79496296,36.4491904 7.29407407,35.947895 7.90962963,35.947895" id="Fill-12"></path>
                                <path d="M23.8614815,35.9483414 L12.3302222,35.9483414 C11.7146667,35.9483414 11.2155556,36.449488 11.2155556,37.0678862 C11.2155556,37.6862845 11.7146667,38.1874311 12.3302222,38.1874311 L23.8614815,38.1874311 C24.477037,38.1874311 24.9761481,37.6862845 24.9761481,37.0678862 C24.9761481,36.449488 24.477037,35.9483414 23.8614815,35.9483414" id="Fill-13"></path>
                                <path d="M7.90962963,40.538267 C8.52518519,40.538267 9.0242963,41.0395624 9.0242963,41.6578118 C9.0242963,42.2760613 8.52518519,42.7773567 7.90962963,42.7773567 C7.29407407,42.7773567 6.79496296,42.2760613 6.79496296,41.6578118 C6.79496296,41.0395624 7.29407407,40.538267 7.90962963,40.538267" id="Fill-14"></path>
                                <path d="M23.8614815,40.5384158 L12.3302222,40.5384158 C11.7146667,40.5384158 11.2155556,41.0395624 11.2155556,41.6579606 C11.2155556,42.2763589 11.7146667,42.7775055 12.3302222,42.7775055 L23.8614815,42.7775055 C24.477037,42.7775055 24.9761481,42.2763589 24.9761481,41.6579606 C24.9761481,41.0395624 24.477037,40.5384158 23.8614815,40.5384158" id="Fill-15"></path>
                                <path d="M31.6288889,35.9483414 L27.5568889,35.9483414 C26.9413333,35.9483414 26.4422222,36.449488 26.4422222,37.0678862 C26.4422222,37.6862845 26.9413333,38.1874311 27.5568889,38.1874311 L31.6288889,38.1874311 C32.2444444,38.1874311 32.7435556,37.6862845 32.7435556,37.0678862 C32.7435556,36.449488 32.2444444,35.9483414 31.6288889,35.9483414" id="Fill-16"></path>
                                <path d="M23.4460741,23.1856193 C23.4460741,23.8040175 23.9451852,24.3051641 24.5607407,24.3051641 L32.2204444,24.3051641 C32.836,24.3051641 33.3351111,23.8040175 33.3351111,23.1856193 C33.3351111,22.567221 32.836,22.0660744 32.2204444,22.0660744 L24.5607407,22.0660744 C23.9451852,22.0662232 23.4460741,22.5673698 23.4460741,23.1856193" id="Fill-17"></path>
                                <path d="M7.90962963,26.7686389 C8.52518519,26.7686389 9.0242963,27.2699344 9.0242963,27.8881838 C9.0242963,28.5064333 8.52518519,29.0077287 7.90962963,29.0077287 C7.29407407,29.0077287 6.79496296,28.5064333 6.79496296,27.8881838 C6.79496296,27.2699344 7.29407407,26.7686389 7.90962963,26.7686389" id="Fill-18"></path>
                                <path d="M27.5568889,26.7681926 L16.9805926,26.7681926 C16.365037,26.7681926 15.8659259,27.2693392 15.8659259,27.8877374 C15.8659259,28.5061357 16.365037,29.0072823 16.9805926,29.0072823 L27.5568889,29.0072823 C28.1724444,29.0072823 28.6715556,28.5061357 28.6715556,27.8877374 C28.6715556,27.2693392 28.1725926,26.7681926 27.5568889,26.7681926" id="Fill-19"></path>
                                <path d="M7.90962963,31.2459256 C8.52518519,31.2459256 9.0242963,31.747221 9.0242963,32.3654705 C9.0242963,32.9837199 8.52518519,33.4850153 7.90962963,33.4850153 C7.29407407,33.4850153 6.79496296,32.9837199 6.79496296,32.3654705 C6.79496296,31.747221 7.29407407,31.2459256 7.90962963,31.2459256" id="Fill-20"></path>
                                <path d="M73.6225185,62.0395098 C73.6225185,64.0915624 71.9602963,65.7609103 69.9173333,65.7609103 L40.5462222,65.7609103 C38.5032593,65.7609103 36.841037,64.0915624 36.841037,62.0395098 L36.841037,50.9779781 C36.841037,50.3595799 36.3419259,49.8584333 35.7263704,49.8584333 C35.1108148,49.8584333 34.6117037,50.3595799 34.6117037,50.9779781 L34.6117037,55.623256 L5.64977778,55.623256 C3.7637037,55.623256 2.22933333,54.0821707 2.22933333,52.1878425 L2.22933333,13.2772604 L47.1868148,13.2772604 L47.1868148,25.8364289 L40.5463704,25.8364289 C39.377037,25.8364289 38.2863704,26.179256 37.3665185,26.7681926 L32.2205926,26.7681926 C31.605037,26.7681926 31.1059259,27.2693392 31.1059259,27.8877374 C31.1059259,28.5061357 31.605037,29.0072823 32.2205926,29.0072823 L35.3041481,29.0072823 C34.9442963,29.6866871 34.7118519,30.4436149 34.6382222,31.246372 L16.9807407,31.246372 C16.3651852,31.246372 15.8660741,31.7475186 15.8660741,32.3659168 C15.8660741,32.9843151 16.3651852,33.4854617 16.9807407,33.4854617 L34.6118519,33.4854617 L34.6118519,45.4858993 C34.6118519,46.1042976 35.110963,46.6054442 35.7265185,46.6054442 C36.3420741,46.6054442 36.8411852,46.1042976 36.8411852,45.4858993 L36.8411852,31.7970678 C36.8411852,29.7450153 38.5034074,28.0756674 40.5463704,28.0756674 L69.9174815,28.0756674 C71.9604444,28.0756674 73.6226667,29.7450153 73.6226667,31.7970678 L73.6226667,62.0395098 L73.6225185,62.0395098 Z M5.64977778,2.32390372 L63.8567407,2.32390372 C65.7428148,2.32390372 67.2771852,3.86513786 67.2771852,5.75946608 L67.2771852,11.0383195 L2.22933333,11.0383195 L2.22933333,5.75946608 C2.22933333,3.86513786 3.7637037,2.32390372 5.64977778,2.32390372 Z M69.9173333,25.8364289 L49.4161481,25.8364289 L49.4161481,13.2772604 L67.2773333,13.2772604 L67.2773333,22.1781182 C67.2773333,22.7965164 67.7764444,23.297663 68.392,23.297663 C69.0075556,23.297663 69.5066667,22.7965164 69.5066667,22.1781182 L69.5066667,5.75946608 C69.5066667,2.63042451 66.9721481,0.0848140044 63.8568889,0.0848140044 L5.64977778,0.0848140044 C2.53451852,0.0848140044 0,2.63042451 0,5.75946608 L0,52.1878425 C0,55.3167352 2.53451852,57.8623457 5.64977778,57.8623457 L34.6118519,57.8623457 L34.6118519,62.0395098 C34.6118519,65.3261269 37.2740741,68 40.5463704,68 L69.9174815,68 C73.1897778,68 75.852,65.3261269 75.852,62.0395098 L75.852,31.796919 C75.8518519,28.510302 73.1896296,25.8364289 69.9173333,25.8364289 L69.9173333,25.8364289 Z" id="Fill-22"></path>
                                <path d="M67.9882963,48.9010766 C67.9882963,49.0460044 67.8802963,49.1689103 67.7371852,49.1867659 L66.3368889,49.3624945 C65.8928889,49.4181444 65.525037,49.7352298 65.4028148,50.1676324 C65.1854815,50.9361663 64.877037,51.6823807 64.4857778,52.385593 C64.2675556,52.7778206 64.304,53.2631947 64.5782222,53.6180744 L65.4447407,54.7394048 C65.5331852,54.8538293 65.522963,55.0172079 65.421037,55.1195799 L63.1992593,57.351081 C63.097037,57.4537505 62.9343704,57.4634223 62.8204444,57.3747396 L61.7066667,56.5047265 C61.3531852,56.2285602 60.8694815,56.1918074 60.4786667,56.4111335 C59.7777778,56.8044026 59.0343704,57.1144945 58.2688889,57.332779 C57.8385185,57.4556849 57.5228148,57.8249978 57.4674074,58.2709409 L57.2924444,59.6773654 C57.2746667,59.8212516 57.1522963,59.9297243 57.008,59.9297243 L53.8659259,59.9297243 C53.7217778,59.9297243 53.5994074,59.8214004 53.5814815,59.6778118 L53.4053333,58.2733217 C53.3493333,57.8273786 53.0333333,57.4583632 52.6026667,57.3360525 C51.8324444,57.1173217 51.085037,56.8060394 50.3814815,56.4111335 C50.2117037,56.3157549 50.0244444,56.268884 49.8379259,56.268884 C49.5951111,56.268884 49.3533333,56.3484902 49.1534815,56.5047265 L48.0397037,57.3747396 C47.9257778,57.4640175 47.7631111,57.4538993 47.661037,57.351081 L45.4392593,55.1197287 C45.3373333,55.0172079 45.3271111,54.8536805 45.4154074,54.7394048 L46.2819259,53.6180744 C46.5562963,53.2631947 46.5925926,52.7778206 46.3745185,52.385593 C45.9832593,51.6823807 45.6746667,50.9361663 45.4574815,50.1676324 C45.3352593,49.7352298 44.9674074,49.4182932 44.5234074,49.3624945 L43.1232593,49.1867659 C42.9801481,49.1689103 42.8721481,49.0460044 42.8721481,48.9010766 L42.8721481,45.7452516 C42.8721481,45.6004726 42.98,45.4775667 43.1228148,45.4595624 L44.5211852,45.2826433 C44.9651852,45.2263982 45.3325926,44.9090153 45.4543704,44.4764639 C45.6721481,43.7028709 45.9820741,42.9523414 46.3752593,42.245558 C46.5937778,41.852884 46.557037,41.3670635 46.2820741,41.012035 L45.4157037,39.8932341 C45.3271111,39.7789584 45.3373333,39.6155799 45.4394074,39.5130591 L47.6611852,37.2814092 C47.7631111,37.1790372 47.9259259,37.1687702 48.0397037,37.257453 L49.1561481,38.1277637 C49.5094815,38.403186 49.9927407,38.4399387 50.3832593,38.2206127 C51.0863704,37.8261532 51.8331852,37.5151685 52.6031111,37.2964376 C53.0337778,37.1741269 53.3497778,36.8051116 53.4057778,36.3591685 L53.5819259,34.9548271 C53.6,34.8112385 53.7222222,34.7029147 53.8665185,34.7029147 L57.0085926,34.7029147 C57.1528889,34.7029147 57.2752593,34.8113873 57.2931852,34.9551247 L57.4681481,36.3615492 C57.5235556,36.8074923 57.8392593,37.1768053 58.2696296,37.2997112 C59.0346667,37.5179956 59.7776296,37.8277899 60.4780741,38.2209103 C60.8685926,38.4399387 61.3518519,38.4033348 61.7051852,38.1279125 L62.8216296,37.2576018 C62.9354074,37.1690678 63.0980741,37.1790372 63.2001481,37.2814092 L65.4220741,39.5132079 C65.524,39.6157287 65.5340741,39.7791072 65.4454815,39.8935317 L64.5792593,41.0121838 C64.3044444,41.3673611 64.2677037,41.8530328 64.4862222,42.2457068 C64.8794074,42.9523414 65.1893333,43.7030197 65.4072593,44.4766127 C65.529037,44.9091641 65.8964444,45.2263982 66.3404444,45.2827921 L67.7388148,45.4597112 C67.8817778,45.4778643 67.9896296,45.6006214 67.9896296,45.7454004 L67.9896296,48.9010766 L67.9882963,48.9010766 Z M68.0162963,43.2380306 L68.0162963,43.2380306 L67.3259259,43.1506871 C67.1685926,42.6977505 66.985037,42.2532954 66.7765926,41.8201488 L67.204,41.2682626 C67.9816296,40.2643326 67.8927407,38.8291904 66.9971852,37.9298643 L64.7752593,35.6982144 C63.8807407,34.79993 62.4527407,34.7097593 61.4536296,35.4888578 L60.9011852,35.9196236 C60.4743704,35.7123501 60.0367407,35.5297768 59.5908148,35.3727965 L59.5044444,34.6776193 C59.3474074,33.4156761 58.2742222,32.4639737 57.0078519,32.4639737 L53.8657778,32.4639737 C52.601037,32.4639737 51.5277037,33.414337 51.3694815,34.6749409 L51.2825185,35.3681838 C50.8318519,35.5262057 50.3894815,35.7104158 49.9585185,35.9196236 L49.4060741,35.4888578 C48.4068148,34.7097593 46.9786667,34.79993 46.0844444,35.6983632 L43.8626667,37.9298643 C42.966963,38.8293392 42.8780741,40.2643326 43.6557037,41.2681138 L44.0832593,41.8201488 C43.8748148,42.2534442 43.6914074,42.6978993 43.5339259,43.1506871 L42.8434074,43.2380306 C41.5885926,43.3970941 40.6422222,44.4749759 40.6422222,45.7452516 L40.6422222,48.9010766 C40.6422222,50.1728403 41.5897778,51.2508709 42.8462222,51.4085952 L43.5385185,51.4953435 C43.6948148,51.943221 43.8765926,52.3827659 44.0828148,52.8112998 L43.6539259,53.3664595 C42.8785185,54.3699431 42.9681481,55.8041926 43.8625185,56.7027746 L46.0842963,58.9342757 C46.9798519,59.8337505 48.4087407,59.9227309 49.408,59.1418468 L49.9576296,58.7125689 C50.3888889,58.9219256 50.8314074,59.1061357 51.2823704,59.2643063 L51.3693333,59.957698 C51.5277037,61.2181532 52.6008889,62.1686652 53.8656296,62.1686652 L57.0077037,62.1686652 C58.2740741,62.1686652 59.3474074,61.2169628 59.5042963,59.9548709 L59.5908148,59.2596937 C60.0368889,59.1027133 60.474963,58.9198425 60.9019259,58.7125689 L61.4515556,59.1418468 C62.450963,59.9225821 63.88,59.833453 64.7754074,58.9342757 L66.9973333,56.7026258 C67.8917037,55.8041926 67.9813333,54.3699431 67.2057778,53.3663107 L66.777037,52.8114486 C66.9832593,52.3827659 67.165037,51.9430722 67.3213333,51.4953435 L68.0136296,51.4085952 C69.2702222,51.2508709 70.2176296,50.1726915 70.2176296,48.9010766 L70.2176296,45.7452516 C70.2176296,44.4749759 69.2712593,43.3970941 68.0162963,43.2380306 L68.0162963,43.2380306 Z" id="Fill-24"></path>
                                <path d="M55.4299259,53.0632123 C52.2748148,53.0632123 49.708,50.4851641 49.708,47.3162451 C49.708,44.1474748 52.2748148,41.5692779 55.4299259,41.5692779 C58.585037,41.5692779 61.1518519,44.147326 61.1518519,47.3162451 C61.1517037,50.4851641 58.5848889,53.0632123 55.4299259,53.0632123 Z M55.4299259,39.330337 C51.0456296,39.330337 47.4788148,42.9127615 47.4788148,47.3162451 C47.4788148,51.7197287 51.0456296,55.3021532 55.4299259,55.3021532 C59.8142222,55.3021532 63.381037,51.7197287 63.381037,47.3162451 C63.381037,42.9129103 59.8142222,39.330337 55.4299259,39.330337 L55.4299259,39.330337 Z" id="Fill-25"></path>
                            </g>
                        </g>
                    </g>
                </g>
            </g>
        </g>
    </g>
</svg>