<?xml version="1.0" encoding="UTF-8"?>
<svg width="10px" height="19px" viewBox="0 0 10 19" version="1.1" xmlns="http://www.w3.org/2000/svg" xmlns:xlink="http://www.w3.org/1999/xlink">
    <!-- Generator: Sketch 47.1 (45422) - http://www.bohemiancoding.com/sketch -->
    <title>facebook-logo</title>
    <desc>Created with Sketch.</desc>
    <defs></defs>
    <g id="Page-1" stroke="none" stroke-width="1" fill="none" fill-rule="evenodd">
        <g id="Acceler-List-Green--BLOG" transform="translate(-495.000000, -2383.000000)" fill="#63CC2F">
            <g id="Group-10" transform="translate(242.000000, 2278.000000)">
                <g id="Facebook" transform="translate(218.000000, 86.000000)">
                    <g id="Group-4" transform="translate(35.000000, 19.000000)">
                        <path d="M9.62428441,0.00370620822 L7.22542935,0 C4.53071631,0 2.78876221,1.83556139 2.78876221,4.67599938 L2.78876221,6.83227132 L0.376677731,6.83227132 C0.16909607,6.83227132 0,7.00498062 0,7.21919946 L0,10.343533 C0,10.5567635 0.16909607,10.7304611 0.376677731,10.7304611 L2.78876221,10.7304611 L2.78876221,18.6130719 C2.78876221,18.8263024 2.95785828,19 3.16640208,19 L6.31211815,19 C6.52066195,19 6.68975802,18.8263024 6.68975802,18.6130719 L6.68975802,10.7304611 L9.50954924,10.7304611 C9.71809304,10.7304611 9.8864675,10.5567635 9.8864675,10.343533 L9.88815125,7.21919946 C9.88815125,7.11690811 9.84774138,7.01857005 9.77726464,6.94518713 C9.7067879,6.87279253 9.61105499,6.83227132 9.51051138,6.83227132 L6.68975802,6.83227132 L6.68975802,5.00436942 C6.68975802,4.12599808 6.89373166,3.68001769 8.00716794,3.68001769 L9.62332227,3.67902936 C9.83186607,3.67902936 10,3.50533174 10,3.29210122 L10,0.39186975 C10,0.177403834 9.83186607,0.00469453042 9.62428441,0.00370620822 Z" id="facebook-logo"></path>
                    </g>
                </g>
            </g>
        </g>
    </g>
</svg>