<?xml version="1.0" encoding="UTF-8"?>
<svg width="13px" height="13px" viewBox="0 0 13 13" version="1.1" xmlns="http://www.w3.org/2000/svg" xmlns:xlink="http://www.w3.org/1999/xlink">
    <!-- Generator: Sketch 47.1 (45422) - http://www.bohemiancoding.com/sketch -->
    <title>Shape</title>
    <desc>Created with Sketch.</desc>
    <defs></defs>
    <g id="Page-1" stroke="none" stroke-width="1" fill="none" fill-rule="evenodd">
        <g id="Acceler-List-Green--TRUE-Copy" transform="translate(-243.000000, -7457.000000)" fill-rule="nonzero" fill="#9B9B9B">
            <g id="Blog" transform="translate(242.000000, 6923.000000)">
                <g id="Group-2" transform="translate(0.000000, 115.000000)">
                    <g id="1">
                        <g id="tag" transform="translate(0.000000, 413.000000)">
                            <g id="ic_tag-copy" transform="translate(0.000000, 4.000000)">
                                <path d="M8.4375,2 C8.035156,2 7.652344,2.160156 7.375,2.445313 L1.4375,8.429688 C0.859375,9.011719 0.859375,9.964844 1.4375,10.546875 L5.453125,14.5625 C6.035156,15.140625 6.988281,15.140625 7.570313,14.5625 L13.558594,8.625 C13.839844,8.34375 14,7.960938 14,7.5625 L14,3.5 C14,2.675781 13.324219,2 12.5,2 L8.4375,2 Z M8.4375,3 L12.5,3 C12.78125,3 13,3.21875 13,3.5 L13,7.5625 C13,7.695313 12.945313,7.824219 12.851563,7.917969 L6.867188,13.855469 C6.667969,14.054688 6.359375,14.050781 6.164063,13.855469 L2.148438,9.835938 C1.945313,9.636719 1.945313,9.332031 2.144531,9.132813 L8.082031,3.148438 C8.175781,3.054688 8.304688,3 8.4375,3 Z M11.5,4 C11.222656,4 11,4.222656 11,4.5 C11,4.777344 11.222656,5 11.5,5 C11.777344,5 12,4.777344 12,4.5 C12,4.222656 11.777344,4 11.5,4 Z" id="Shape"></path>
                            </g>
                        </g>
                    </g>
                </g>
            </g>
        </g>
    </g>
</svg>