<?xml version="1.0" encoding="UTF-8"?>
<svg width="21px" height="12px" viewBox="0 0 21 12" version="1.1" xmlns="http://www.w3.org/2000/svg" xmlns:xlink="http://www.w3.org/1999/xlink">
    <!-- Generator: Sketch 47.1 (45422) - http://www.bohemiancoding.com/sketch -->
    <title>Shape</title>
    <desc>Created with Sketch.</desc>
    <defs></defs>
    <g id="Page-1" stroke="none" stroke-width="1" fill="none" fill-rule="evenodd">
        <g id="Acceler-List-Green--BLOG" transform="translate(-991.000000, -593.000000)" fill-rule="nonzero" fill="#FFFFFF">
            <g id="Group-8" transform="translate(868.000000, 587.000000)">
                <g id="tag-copy" transform="translate(121.000000, 0.000000)">
                    <g id="icons8-services">
                        <path d="M12.5027155,6 C5.00310358,6 2.14119473,11.7187507 2.14119473,11.7187507 L2,12 L2.14119473,12.2812507 C2.14119473,12.2812507 5.00310358,18 12.5027155,18 C20.0023273,18 22.8642362,12.2812507 22.8642362,12.2812507 L23,12 L22.8642362,11.7187507 C22.8642362,11.7187507 20.0023273,6 12.5027155,6 Z M12.5027155,7.33333333 C15.1962764,7.33333333 17.368503,9.41666667 17.368503,12 C17.368503,14.5833333 15.1962764,16.6666667 12.5027155,16.6666667 C9.80915451,16.6666667 7.63692794,14.5833333 7.63692794,12 C7.63692794,9.41666667 9.80915451,7.33333333 12.5027155,7.33333333 Z M7.5554691,8.369792 C6.74631505,9.380208 6.24670294,10.630208 6.24670294,12 C6.24670294,13.369792 6.74631505,14.619792 7.5554691,15.630208 C4.88906203,14.3593747 3.80294875,12.3385413 3.62917062,12 C3.80294875,11.6614587 4.88906203,9.64062533 7.5554691,8.369792 Z M17.4499618,8.369792 C20.1163703,9.64062533 21.2024836,11.6614587 21.3762617,12 C21.2024836,12.3385413 20.1163703,14.3593747 17.4499618,15.630208 C18.2591159,14.619792 18.758728,13.369792 18.758728,12 C18.758728,10.630208 18.2591159,9.380208 17.4499618,8.369792 Z M12.5027155,10 C11.3514354,10 10.417378,10.8958333 10.417378,12 C10.417378,13.1041667 11.3514354,14 12.5027155,14 C13.6539955,14 14.588053,13.1041667 14.588053,12 C14.588053,10.8958333 13.6539955,10 12.5027155,10 Z" id="Shape"></path>
                    </g>
                </g>
            </g>
        </g>
    </g>
</svg>