<svg width="22" height="22" xmlns="http://www.w3.org/2000/svg">
  <g fill="none" fill-rule="evenodd">
    <path d="M16.5 3.66666667l-3.6666667 3.66666666h2.75V13.75c0 1.0083333-.825 1.8333333-1.8333333 1.8333333s-1.8333333-.825-1.8333333-1.8333333V7.33333333c0-2.02583333-1.6408334-3.66666666-3.6666667-3.66666666-2.02583333 0-3.66666667 1.64083333-3.66666667 3.66666666V13.75h-2.75L5.5 17.4166667 9.16666667 13.75h-2.75V7.33333333C6.41666667 6.325 7.24166667 5.5 8.25 5.5c1.00833333 0 1.8333333.825 1.8333333 1.83333333V13.75c0 2.0258333 1.6408334 3.6666667 3.6666667 3.6666667S17.4166667 15.7758333 17.4166667 13.75V7.33333333h2.75L16.5 3.66666667z" fill="#C1C9BD"/>
    <path d="M0 0h22v22H0z"/>
  </g>
</svg>
