<?xml version="1.0" encoding="UTF-8"?>
<svg width="20px" height="16px" viewBox="0 0 20 16" version="1.1" xmlns="http://www.w3.org/2000/svg" xmlns:xlink="http://www.w3.org/1999/xlink">
    <!-- Generator: Sketch 47.1 (45422) - http://www.bohemiancoding.com/sketch -->
    <title>twitter-logo-silhouette</title>
    <desc>Created with Sketch.</desc>
    <defs></defs>
    <g id="Page-1" stroke="none" stroke-width="1" fill="none" fill-rule="evenodd">
        <g id="Acceler-List-Green--BLOG" transform="translate(-332.000000, -2385.000000)" fill="#63CC2F">
            <g id="Group-10" transform="translate(242.000000, 2278.000000)">
                <g id="Tweet" transform="translate(60.000000, 86.000000)">
                    <g id="Group-4" transform="translate(30.000000, 20.000000)">
                        <path d="M20,2.89267167 C19.2672447,3.21273322 18.4735568,3.43431429 17.6439341,3.53125601 C18.4923053,3.03115984 19.1391298,2.23869975 19.450043,1.29390267 C18.656355,1.75706867 17.7782986,2.09405655 16.8377471,2.27409117 C16.0940552,1.49240239 15.0253886,1 13.8473557,1 C11.58347,1 9.74611358,2.80957877 9.74611358,5.03923832 C9.74611358,5.35776111 9.78361066,5.66397384 9.85079291,5.95941527 C6.43855949,5.79015195 3.41848293,4.18522793 1.39207874,1.73860358 C1.03741895,2.33410271 0.835872197,3.03115984 0.835872197,3.77130217 C0.835872197,5.17157146 1.56237794,6.41027121 2.66072963,7.13040969 C1.98890712,7.11348336 1.36083119,6.92729371 0.806187017,6.62569725 L0.806187017,6.67493749 C0.806187017,8.63377573 2.22170143,10.2679361 4.09499258,10.6418542 C3.75283181,10.7311021 3.38723537,10.7788036 3.01538942,10.7788036 C2.75290993,10.7788036 2.49667995,10.7557223 2.24044996,10.7080208 C2.76540895,12.3129448 4.2777908,13.4777842 6.07296305,13.5147144 C4.66838528,14.5964609 2.89821108,15.2396615 0.976486212,15.2396615 C0.646824467,15.2396615 0.323412233,15.2211964 0,15.185805 C1.81860792,16.333718 3.9731271,17 6.29169596,17 C13.8348567,17 17.9610968,10.8449702 17.9610968,5.50855934 L17.9485978,4.9853818 C18.7547848,4.41450279 19.450043,3.7051356 20,2.89267167 Z" id="twitter-logo-silhouette"></path>
                    </g>
                </g>
            </g>
        </g>
    </g>
</svg>