<?xml version="1.0" encoding="UTF-8"?>
<svg width="14px" height="8px" viewBox="0 0 14 8" version="1.1" xmlns="http://www.w3.org/2000/svg" xmlns:xlink="http://www.w3.org/1999/xlink">
    <!-- Generator: Sketch 47.1 (45422) - http://www.bohemiancoding.com/sketch -->
    <title>Shape</title>
    <desc>Created with Sketch.</desc>
    <defs></defs>
    <g id="Page-1" stroke="none" stroke-width="1" fill="none" fill-rule="evenodd">
        <g id="Acceler-List-Green--TRUE-Copy" transform="translate(-351.000000, -7459.000000)" fill-rule="nonzero" fill="#9B9B9B">
            <g id="Blog" transform="translate(242.000000, 6923.000000)">
                <g id="Group-2" transform="translate(0.000000, 115.000000)">
                    <g id="1">
                        <g id="tag-copy" transform="translate(108.000000, 413.000000)">
                            <g id="ic_view-copy" transform="translate(0.000000, 4.000000)">
                                <path d="M8.0018103,4 C3.00206905,4 1.09412982,7.81250044 1.09412982,7.81250044 L1,8 L1.09412982,8.18750044 C1.09412982,8.18750044 3.00206905,12 8.0018103,12 C13.0015516,12 14.9094908,8.18750044 14.9094908,8.18750044 L15,8 L14.9094908,7.81250044 C14.9094908,7.81250044 13.0015516,4 8.0018103,4 Z M8.0018103,4.88888889 C9.7975176,4.88888889 11.2456686,6.27777778 11.2456686,8 C11.2456686,9.72222222 9.7975176,11.1111111 8.0018103,11.1111111 C6.20610301,11.1111111 4.75795196,9.72222222 4.75795196,8 C4.75795196,6.27777778 6.20610301,4.88888889 8.0018103,4.88888889 Z M4.70364607,5.57986133 C4.16421003,6.253472 3.83113529,7.08680533 3.83113529,8 C3.83113529,8.91319467 4.16421003,9.746528 4.70364607,10.4201387 C2.92604135,9.57291644 2.20196583,8.22569422 2.08611375,8 C2.20196583,7.77430578 2.92604135,6.42708356 4.70364607,5.57986133 Z M11.2999745,5.57986133 C13.0775802,6.42708356 13.8016557,7.77430578 13.9175078,8 C13.8016557,8.22569422 13.0775802,9.57291644 11.2999745,10.4201387 C11.8394106,9.746528 12.1724853,8.91319467 12.1724853,8 C12.1724853,7.08680533 11.8394106,6.253472 11.2999745,5.57986133 Z M8.0018103,6.66666667 C7.23429025,6.66666667 6.6115853,7.26388889 6.6115853,8 C6.6115853,8.73611111 7.23429025,9.33333333 8.0018103,9.33333333 C8.76933036,9.33333333 9.39203531,8.73611111 9.39203531,8 C9.39203531,7.26388889 8.76933036,6.66666667 8.0018103,6.66666667 Z" id="Shape"></path>
                            </g>
                        </g>
                    </g>
                </g>
            </g>
        </g>
    </g>
</svg>