<?xml version="1.0" encoding="UTF-8"?>
<svg width="72px" height="72px" viewBox="0 0 72 72" version="1.1" xmlns="http://www.w3.org/2000/svg" xmlns:xlink="http://www.w3.org/1999/xlink">
    <!-- Generator: Sketch 47.1 (45422) - http://www.bohemiancoding.com/sketch -->
    <title>icon copy</title>
    <desc>Created with Sketch.</desc>
    <defs></defs>
    <g id="Page-1" stroke="none" stroke-width="1" fill="none" fill-rule="evenodd">
        <g id="Acceler-List-Green--TRUE-Copy" transform="translate(-1409.000000, -1320.000000)">
            <g id="Managing-FBA" transform="translate(0.000000, -339.000000)">
                <g id="Block-2-(-text-)" transform="translate(242.000000, 1469.000000)">
                    <g id="Group" transform="translate(0.000000, 185.000000)">
                        <g id="txt-3" transform="translate(971.000000, 1.000000)">
                            <g id="icon-copy" transform="translate(192.000000, 0.000000)">
                                <rect id="Rectangle-3" x="0" y="0" width="80" height="80"></rect>
                                <path d="M54.2787816,4.001128 C54.1512042,4.00552695 54.0236269,4.02752281 53.9004485,4.08031355 L51.8108147,4.92496541 C51.3137022,5.12733048 51.0277526,5.65083782 51.1245351,6.17434629 L51.8812024,10.1688457 C50.9001741,10.8815213 50.0379254,11.7261731 49.307654,12.6852044 L45.3351504,11.8669485 C44.811642,11.7569669 44.2837346,12.0341186 44.0725716,12.5268322 L43.1927259,14.603268 C42.985963,15.0959816 43.1531331,15.6678818 43.593056,15.9714283 L46.9452686,18.2590271 C46.7561015,19.4512183 46.7473025,20.6566063 46.9188727,21.8575954 L43.5226683,24.0880045 C43.0783465,24.3827531 42.8979785,24.9502533 43.1003424,25.4473658 L43.9449943,27.5369996 C44.1429593,28.0341121 44.6664677,28.3244618 45.1943751,28.2232792 L49.1844756,27.466612 C49.8971501,28.4476402 50.7418019,29.309889 51.7052332,30.0357614 L50.8825772,34.0126639 C50.7769957,34.5361723 51.0541474,35.0640798 51.546861,35.2752427 L53.6232968,36.1550884 C54.1160104,36.3618524 54.6879107,36.1946812 54.9914572,35.7547583 L57.2790559,32.4025468 C58.4712471,32.5873139 59.6766352,32.6005118 60.8776243,32.4289416 L63.1080334,35.825146 C63.3191963,36.1462894 63.6799336,36.3310575 64.0494688,36.3310575 C64.1902441,36.3310575 64.3310194,36.3046616 64.4673947,36.2474719 L66.5570285,35.4028201 C67.0585411,35.2048551 67.3444906,34.6769477 67.2433081,34.1534392 L66.4910397,30.1633387 C67.472068,29.4506643 68.3343167,28.6060124 69.0601892,27.6425811 L73.0326927,28.4652371 C73.5562012,28.5664196 74.0841086,28.2936669 74.2952716,27.8009533 L75.1751173,25.7245175 C75.3818813,25.2318039 75.21471,24.6599048 74.7747872,24.3563572 L71.4181756,22.0687584 C71.6073427,20.8765683 71.6161417,19.6755781 71.4489705,18.474589 L74.8407759,16.239781 C75.2894966,15.9450324 75.4698658,15.3775322 75.2675008,14.8804197 L74.4228489,12.7907859 C74.220485,12.2936733 73.6969765,12.0033237 73.173468,12.1045062 L69.1789686,12.8611735 C68.4662942,11.8801453 67.6216423,11.0178965 66.6626099,10.2920241 L67.480867,6.3151216 C67.5908474,5.79161313 67.3136957,5.26370572 66.8209822,5.05254276 L64.7445463,4.17709714 C64.2518327,3.96593418 63.6799336,4.13310429 63.376386,4.57302714 L61.0887872,7.92523977 C59.8965972,7.74047162 58.691208,7.73167372 57.4902189,7.89884384 L55.2598098,4.50703843 C55.039849,4.17269707 54.6659137,3.98353109 54.2787816,4.001128 Z M53.8872505,6.5130866 L56.0164771,9.75091873 C56.2672328,10.1336519 56.7247526,10.322819 57.1778734,10.2348344 C58.5768286,9.9532838 59.9845817,9.96648177 61.3659389,10.2700283 C61.8102607,10.3668107 62.2765795,10.1864426 62.5405332,9.80370947 L64.7181515,6.60547124 L65.0920857,6.76384347 L64.3090224,10.5559778 C64.2166389,11.0046997 64.405806,11.4666184 64.7885392,11.7217731 C65.9675324,12.5004374 66.9529596,13.5078604 67.7184248,14.7088495 C67.9647816,15.0959816 68.4267003,15.2983466 68.8798211,15.2103621 L72.6807544,14.4888886 L72.8347277,14.8672217 L69.6012945,16.9964483 C69.2141624,17.247204 69.0205964,17.7091238 69.1129799,18.1578446 C69.3945305,19.5567998 69.3857326,20.9645529 69.0777861,22.34591 C68.9810036,22.7946319 69.1613717,23.2565506 69.5441048,23.5161054 L72.7379441,25.6937226 L72.5795719,26.0720568 L68.7918365,25.2845946 C68.3387157,25.1966101 67.8811959,25.3857772 67.6260412,25.7685103 C66.8473781,26.9475036 65.8399539,27.9329307 64.6389649,28.6983959 C64.2518327,28.9447527 64.0538677,29.4066714 64.1374534,29.8597922 L64.8545268,33.6607256 L64.4805926,33.8146989 L62.3513661,30.5768667 C62.144602,30.2557233 61.7838659,30.0709552 61.4143307,30.0709552 C61.3395441,30.0709552 61.2603574,30.0753541 61.1899698,30.0929511 C59.7910157,30.3745017 58.3832626,30.3657038 57.0019043,30.0577572 C56.5575825,29.9609748 56.0912637,30.1413428 55.8317101,30.524076 L53.6540917,33.7179153 L53.2757575,33.5595431 L54.0632197,29.7718077 C54.1556032,29.3230869 53.9620371,28.8611671 53.5793051,28.6060124 C52.4003119,27.8273492 51.4148847,26.8199251 50.6494184,25.618936 C50.4030616,25.2318039 49.9455419,25.0338389 49.4880221,25.1174245 L45.6870887,25.8344979 L45.5331154,25.4605638 L48.7709476,23.3313372 C49.1536807,23.0805815 49.3472468,22.6186628 49.2592622,22.1699409 C48.9733126,20.7709868 48.9865106,19.3632337 49.2900571,17.9818754 C49.3912396,17.5331547 49.2064715,17.0712349 48.8237383,16.8116812 L45.629899,14.6340629 L45.7882713,14.2601287 L49.5760067,15.0431908 C50.0291275,15.1311754 50.4910462,14.9420083 50.7418019,14.5592763 C51.5248651,13.380283 52.5278892,12.3948559 53.7288783,11.6293896 C54.1160104,11.3830328 54.3139754,10.9211141 54.2303909,10.4679933 L53.5133164,6.66705988 L53.8872505,6.5130866 Z M59.1839216,13.4066779 C55.4577748,13.4066779 52.4267067,16.437746 52.4267067,20.1638927 C52.4267067,23.8900395 55.4577748,26.9211076 59.1839216,26.9211076 C62.9100684,26.9211076 65.9411365,23.8900395 65.9411365,20.1638927 C65.9411365,16.437746 62.9100684,13.4066779 59.1839216,13.4066779 Z M59.1839216,15.3907302 C61.8190597,15.3907302 63.9570842,17.5287546 63.9570842,20.1638927 C63.9570842,22.7990309 61.8190597,24.9370553 59.1839216,24.9370553 C56.5487835,24.9370553 54.410759,22.7990309 54.410759,20.1638927 C54.410759,17.5287546 56.5487835,15.3907302 59.1839216,15.3907302 Z M59.1839216,17.9114878 C57.9389397,17.9114878 56.9315166,18.9189108 56.9315166,20.1638927 C56.9315166,21.4088747 57.9389397,22.4162977 59.1839216,22.4162977 C60.4289035,22.4162977 61.4363265,21.4088747 61.4363265,20.1638927 C61.4363265,18.9189108 60.4289035,17.9114878 59.1839216,17.9114878 Z M28.5300978,23.5425002 C27.4962788,23.5425002 26.5988362,24.2463767 26.3480805,25.2494008 L24.9051336,30.9771968 C23.3258103,31.4039217 21.8080767,32.0330116 20.3827267,32.8644655 L15.3104166,29.8201995 C14.426172,29.2878931 13.2911705,29.4242683 12.5608991,30.1589398 L10.6164396,32.0989992 C9.88616822,32.8336707 9.74539291,33.9642721 10.2776993,34.8529168 L13.3131663,39.9252269 C12.4949104,41.3505769 11.8614215,42.8683104 11.4434945,44.4520327 L5.70690064,45.8861817 C4.70387655,46.1369375 4,47.0343801 4,48.072598 L4,50.8177165 C4,51.8515355 4.70387655,52.7489781 5.70690064,52.9997338 L11.4346966,54.4426808 C11.8614215,56.0220041 12.4905115,57.5397376 13.3219654,58.9650876 L10.2776993,64.0373977 C9.74539291,64.9260424 9.88176815,66.0566438 10.6164396,66.7913153 L12.5608991,68.7313747 C13.2911705,69.4616472 14.4217719,69.6024225 15.3104166,69.0701151 L20.3827267,66.034648 C21.8036778,66.8529039 23.3258103,67.4863928 24.9095325,67.9043198 L26.3480805,73.6409137 C26.5944373,74.6483367 27.4918799,75.3478143 28.5300978,75.3478143 L31.2752163,75.3478143 C32.3090353,75.3478143 33.2064779,74.6439378 33.4572337,73.6409137 L34.9001806,67.9131188 C36.4795039,67.4863928 37.9972374,66.8529039 39.4225874,66.025849 L44.4948975,69.0701151 C45.3791433,69.6024225 46.5141437,69.4660462 47.2488151,68.7313747 L49.1888746,66.7913153 C49.919147,66.0610428 50.0599224,64.9260424 49.5276149,64.0373977 L46.4965468,58.9650876 C47.3148038,57.5441365 47.9438926,56.0220041 48.3618196,54.4382818 L54.0984135,53.0041328 C55.1014376,52.753377 55.8053141,51.8559344 55.8053141,50.8177165 L55.8053141,48.072598 C55.8053141,47.0343801 55.1014376,46.1369375 54.0984135,45.8861817 L48.3706186,44.4476337 C47.9438926,42.8683104 47.3104037,41.346178 46.4833488,39.9252269 L49.5276149,34.8529168 C50.0599224,33.9642721 49.923546,32.8336707 49.1888746,32.0989992 L47.2488151,30.1589398 C46.5141437,29.4286684 45.3835422,29.2878931 44.4948975,29.8201995 L39.4225874,32.8512676 C37.9972374,32.0330116 36.4795039,31.4039217 34.8957816,30.9859947 L33.4616326,25.2494008 C33.2108769,24.2463767 32.3134343,23.5425002 31.2752163,23.5425002 L28.5300978,23.5425002 Z M28.5300978,25.7949051 L31.2752163,25.7949051 L32.7093654,31.531499 C32.9073304,32.3189612 33.5232224,32.9392521 34.3150835,33.1504151 C35.7052397,33.5287493 37.0426051,34.0830515 38.2963849,34.804525 C39.0134595,35.218053 39.8845061,35.213653 40.5795848,34.7957271 L45.6518949,31.751461 L47.5963544,33.6959194 L44.5520883,38.7682295 C44.1341614,39.4633082 44.1297624,40.3387549 44.5432893,41.0514294 C45.2647628,42.3052092 45.8190661,43.6469747 46.1973992,45.0327308 C46.4085622,45.828992 47.0288531,46.4404839 47.8163153,46.6384501 L53.5529092,48.072598 L53.5529092,50.8177165 L47.8163153,52.2518656 C47.0288531,52.4498306 46.4085622,53.0657225 46.1973992,53.8575837 C45.8190661,55.2477398 45.2603638,56.5851053 44.5432893,57.8388851 C44.1297624,58.5515607 44.1341614,59.4270063 44.5520883,60.122085 L47.5963544,65.1943951 L45.6518949,67.1388546 L40.5839837,64.0945885 C39.8845061,63.6766615 39.0134595,63.6722626 38.3007839,64.0857895 C37.0470041,64.807263 35.7052397,65.3615663 34.3150835,65.7398994 C33.5232224,65.9510624 32.9073304,66.5713533 32.7093654,67.3588155 L31.2752163,73.0954094 L28.5300978,73.0954094 L27.0959499,67.3588155 C26.8979838,66.5757534 26.2820918,65.9554613 25.4902307,65.7398994 C24.1000745,65.3615663 22.762709,64.807263 21.5089292,64.0857895 C21.152592,63.8790255 20.7566609,63.782243 20.3651298,63.782243 C19.9691998,63.782243 19.5732687,63.8834256 19.2213304,64.0945885 L14.1534192,67.1388546 L12.2089608,65.1943951 L15.2532269,60.1264839 C15.6711528,59.4314064 15.6755528,58.5559596 15.2620248,57.8388851 C14.5405513,56.5851053 13.9862491,55.2477398 13.6079149,53.8575837 C13.396752,53.0613236 12.776461,52.4454316 11.9889989,52.2518656 L6.25240496,50.8177165 L6.25240496,48.072598 L11.9889989,46.6384501 C12.7720621,46.444884 13.392353,45.824592 13.6079149,45.0327308 C13.9862491,43.6425747 14.5405513,42.3052092 15.2620248,41.0514294 C15.6755528,40.3343549 15.6711528,39.4589092 15.2532269,38.7638306 L12.2089608,33.6959194 L14.1534192,31.751461 L19.2213304,34.7957271 C19.9164091,35.213653 20.7918547,35.218053 21.5089292,34.804525 C22.762709,34.0830515 24.1000745,33.5287493 25.4902307,33.1504151 C26.2820918,32.9392521 26.8979838,32.3189612 27.0959499,31.531499 L28.5300978,25.7949051 Z M29.6650993,35.9351264 C28.1033729,35.9439254 26.5372476,36.1990801 25.0591068,36.7049917 C24.4696097,36.9073568 24.1572653,37.5452446 24.3596292,38.1347406 C24.5180015,38.6054584 24.9579243,38.900207 25.4242431,38.900207 C25.5430214,38.900207 25.6661998,38.8782111 25.7893782,38.8342182 C28.283741,37.9807685 31.0684523,37.9719695 33.5672141,38.7990244 C34.1611102,38.9881915 34.7945991,38.6714471 34.9881651,38.077551 C35.1861301,37.4880549 34.8649868,36.854566 34.2754907,36.6565999 C32.7929499,36.1682864 31.2268245,35.9263285 29.6650993,35.9351264 Z M37.8564621,38.7990244 C37.5705125,38.8342182 37.2977598,38.9749936 37.1041937,39.2213504 C36.7214617,39.709665 36.8050462,40.4179405 37.2933609,40.8050726 C37.878458,41.2669913 38.4283624,41.7861008 38.9166759,42.3492021 C39.1410368,42.6043567 39.4533823,42.7319352 39.7701267,42.7319352 C40.0296815,42.7319352 40.2980342,42.6395506 40.5091971,42.4547835 C40.9755148,42.0456556 41.0239066,41.33298 40.6147786,40.8622623 C40.0296815,40.1979796 39.3829946,39.5820876 38.687916,39.0365833 C38.4415592,38.8430173 38.1468117,38.7682295 37.8564621,38.7990244 Z M29.9026571,41.5617399 C25.5562194,41.5617399 22.0192397,45.0987195 22.0192397,49.4451573 C22.0192397,53.791595 25.5562194,57.3285746 29.9026571,57.3285746 C34.2490948,57.3285746 37.7860744,53.791595 37.7860744,49.4451573 C37.7860744,45.0987195 34.2490948,41.5617399 29.9026571,41.5617399 Z M17.268073,43.3522261 C16.8281501,43.3654241 16.4190222,43.6381757 16.2518509,44.0736996 C16.0274911,44.6543978 16.3178396,45.3054836 16.8985378,45.5298445 L18.8122024,46.2645148 C18.9441787,46.3173055 19.084954,46.3393025 19.2169315,46.3393025 C19.6700523,46.3393025 20.0967772,46.0621509 20.2683473,45.613429 C20.4927071,45.0327308 20.1979597,44.3860451 19.6216605,44.1616842 L17.7079958,43.4270127 C17.5628216,43.3698231 17.4132472,43.3478272 17.268073,43.3522261 Z M29.9026571,43.8141448 C33.0085129,43.8141448 35.5336695,46.3393025 35.5336695,49.4451573 C35.5336695,52.5510131 33.0085129,55.0761697 29.9026571,55.0761697 C26.7968024,55.0761697 24.2716447,52.5510131 24.2716447,49.4451573 C24.2716447,46.3393025 26.7968024,43.8141448 29.9026571,43.8141448 Z M29.9026571,47.1927523 C28.6576751,47.1927523 27.6502521,48.2001753 27.6502521,49.4451573 C27.6502521,50.6901392 28.6576751,51.6975622 29.9026571,51.6975622 C31.147639,51.6975622 32.155062,50.6901392 32.155062,49.4451573 C32.155062,48.2001753 31.147639,47.1927523 29.9026571,47.1927523 Z M18.4470662,48.3233537 L16.4014253,48.3585475 C15.7767343,48.3717455 15.2796217,48.882056 15.2928197,49.5023469 C15.3060177,50.1182389 15.8075291,50.6109525 16.4190222,50.6109525 L16.441018,50.6109525 L18.486659,50.5757587 C19.11135,50.5625618 19.6084625,50.0522513 19.5952645,49.4275603 C19.5820677,48.8072694 19.0761562,48.3453507 18.4470662,48.3233537 Z M19.3621057,52.5290161 C19.2125325,52.5290161 19.0673571,52.559811 18.9221829,52.6170007 L17.0393131,53.4220598 C16.4630139,53.6640176 16.1990602,54.3239013 16.441018,54.9002005 C16.6213861,55.3269254 17.0393131,55.5864802 17.4792359,55.5864802 C17.6244102,55.5864802 17.7739845,55.5556853 17.9191588,55.4940966 L19.8020286,54.6934365 C20.3739288,54.4514798 20.6422815,53.791595 20.4003236,53.2152957 C20.2199555,52.7885709 19.7976296,52.5290161 19.3621057,52.5290161 Z M21.768484,56.0967907 C21.4781343,56.0967907 21.1921848,56.2067711 20.9722239,56.4267331 L19.5204779,57.8740789 C19.0805551,58.3184007 19.0805551,59.0266774 19.5204779,59.4709992 C19.7404399,59.6865611 20.0307884,59.7965415 20.316738,59.7965415 C20.6070877,59.7965415 20.8974362,59.6865611 21.1173982,59.4709992 L22.564744,58.0192532 C23.0046669,57.5793304 23.0046669,56.8666559 22.564744,56.4267331 C22.3447832,56.2067711 22.0588325,56.0967907 21.768484,56.0967907 Z" id="Shape" fill="#64CB31" fill-rule="nonzero"></path>
                            </g>
                        </g>
                    </g>
                </g>
            </g>
        </g>
    </g>
</svg>