<?xml version="1.0" encoding="UTF-8"?>
<svg width="141px" height="138px" viewBox="0 0 141 138" version="1.1" xmlns="http://www.w3.org/2000/svg" xmlns:xlink="http://www.w3.org/1999/xlink">
    <!-- Generator: Sketch 47.1 (45422) - http://www.bohemiancoding.com/sketch -->
    <title>rect</title>
    <desc>Created with Sketch.</desc>
    <defs></defs>
    <g id="Page-1" stroke="none" stroke-width="1" fill="none" fill-rule="evenodd" fill-opacity="0.5">
        <g id="Acceler-List-Green--TRUE-Copy" transform="translate(-1315.000000, -5461.000000)" fill="#64CB31">
            <g id="Price" transform="translate(466.000000, 5283.000000)">
                <g id="price-2" transform="translate(525.000000, 178.000000)">
                    <g id="Group-13">
                        <g id="rect" transform="translate(324.000000, -69.000000)">
                            <path d="M111.300443,6.49553416 L187.875467,49.7293649 C208.076138,61.134551 214.997399,86.3943554 203.334536,106.148717 L156.226308,185.939844 C144.563446,205.694205 118.732948,212.46255 98.5322766,201.057364 L21.9572531,157.823533 C1.75658212,146.418347 -5.16467892,121.158542 6.49818393,101.404181 L53.6064113,21.613054 C65.2692742,1.85869227 91.099772,-4.90965192 111.300443,6.49553416 Z" id="Rectangle-3"></path>
                            <path d="M125.44061,30.0378121 L170.163782,55.1522652 C190.431764,66.5338212 197.376088,91.7412905 185.674363,111.454724 L157.567507,158.805232 C145.865782,178.518666 119.949214,185.272987 99.6812317,173.891431 L54.9580599,148.776978 C34.6900778,137.395422 27.7457543,112.187952 39.4474792,92.4745191 L67.554335,45.1240104 C79.25606,25.4105772 105.172628,18.6562562 125.44061,30.0378121 Z" id="Rectangle-3-Copy"></path>
                        </g>
                    </g>
                </g>
            </g>
        </g>
    </g>
</svg>