<?xml version="1.0" encoding="UTF-8"?>
<svg width="1503px" height="183px" viewBox="0 0 1503 183" version="1.1" xmlns="http://www.w3.org/2000/svg" xmlns:xlink="http://www.w3.org/1999/xlink">
    <!-- Generator: Sketch 47.1 (45422) - http://www.bohemiancoding.com/sketch -->
    <title>Group 4 Copy</title>
    <desc>Created with Sketch.</desc>
    <defs></defs>
    <g id="Page-1" stroke="none" stroke-width="1" fill="none" fill-rule="evenodd">
        <g id="Acceler-List-Green--TRUE-Copy" transform="translate(-190.000000, -1741.000000)" fill="#64CB31">
            <g id="Managing-FBA" transform="translate(0.000000, -339.000000)">
                <g id="Photo" transform="translate(190.000000, 2004.000000)">
                    <g id="Group-4-Copy" transform="translate(0.000000, 76.000000)">
                        <g id="Group-4-Copy-4" transform="translate(266.500000, 92.000000) scale(-1, 1) translate(-266.500000, -92.000000) ">
                            <g id="Group" transform="translate(442.000000, 60.040954)">
                                <rect id="Rectangle-path" x="0" y="0.9" width="2" height="4"></rect>
                                <rect id="Rectangle-path" x="0" y="10.9" width="2" height="4"></rect>
                            </g>
                            <g id="Group" transform="translate(436.000000, 66.040954)">
                                <rect id="Rectangle-path" x="10" y="0.9" width="4" height="2"></rect>
                                <rect id="Rectangle-path" x="0" y="0.9" width="4" height="2"></rect>
                            </g>
                            <g id="Group" transform="translate(287.000000, 168.040954)">
                                <rect id="Rectangle-path" x="0.9" y="0.9" width="2" height="4"></rect>
                                <rect id="Rectangle-path" x="0.9" y="10.9" width="2" height="4"></rect>
                            </g>
                            <g id="Group" transform="translate(281.000000, 174.040954)">
                                <rect id="Rectangle-path" x="10.9" y="0.9" width="4" height="2"></rect>
                                <rect id="Rectangle-path" x="0.9" y="0.9" width="4" height="2"></rect>
                            </g>
                            <path d="M214.9,2.940954 L212.9,2.940954 L212.9,0.940953996 L214.9,0.940953996 L214.9,2.940954 Z M210.9,2.940954 L208.9,2.940954 L208.9,0.940953996 L210.9,0.940953996 L210.9,2.940954 Z M206.9,2.940954 L204.9,2.940954 L204.9,0.940953996 L206.9,0.940953996 L206.9,2.940954 Z M202.9,2.940954 L200.9,2.940954 L200.9,0.940953996 L202.9,0.940953996 L202.9,2.940954 Z" id="Shape"></path>
                            <circle id="Oval" cx="531" cy="144" r="2"></circle>
                            <circle id="Oval" cx="2" cy="66.040954" r="2"></circle>
                            <circle id="Oval" cx="407" cy="177.040954" r="1"></circle>
                        </g>
                        <g id="Group-4-Copy-2" transform="translate(1236.500000, 92.000000) scale(-1, 1) translate(-1236.500000, -92.000000) translate(970.000000, 0.000000)">
                            <g id="Group" transform="translate(442.000000, 60.040954)">
                                <rect id="Rectangle-path" x="0" y="0.9" width="2" height="4"></rect>
                                <rect id="Rectangle-path" x="0" y="10.9" width="2" height="4"></rect>
                            </g>
                            <g id="Group" transform="translate(436.000000, 66.040954)">
                                <rect id="Rectangle-path" x="10" y="0.9" width="4" height="2"></rect>
                                <rect id="Rectangle-path" x="0" y="0.9" width="4" height="2"></rect>
                            </g>
                            <g id="Group" transform="translate(287.000000, 168.040954)">
                                <rect id="Rectangle-path" x="0.9" y="0.9" width="2" height="4"></rect>
                                <rect id="Rectangle-path" x="0.9" y="10.9" width="2" height="4"></rect>
                            </g>
                            <g id="Group" transform="translate(281.000000, 174.040954)">
                                <rect id="Rectangle-path" x="10.9" y="0.9" width="4" height="2"></rect>
                                <rect id="Rectangle-path" x="0.9" y="0.9" width="4" height="2"></rect>
                            </g>
                            <path d="M214.9,2.940954 L212.9,2.940954 L212.9,0.940953996 L214.9,0.940953996 L214.9,2.940954 Z M210.9,2.940954 L208.9,2.940954 L208.9,0.940953996 L210.9,0.940953996 L210.9,2.940954 Z M206.9,2.940954 L204.9,2.940954 L204.9,0.940953996 L206.9,0.940953996 L206.9,2.940954 Z M202.9,2.940954 L200.9,2.940954 L200.9,0.940953996 L202.9,0.940953996 L202.9,2.940954 Z" id="Shape"></path>
                            <circle id="Oval" cx="531" cy="144" r="2"></circle>
                            <circle id="Oval" cx="2" cy="66.040954" r="2"></circle>
                            <circle id="Oval" cx="407" cy="177.040954" r="1"></circle>
                        </g>
                    </g>
                </g>
            </g>
        </g>
    </g>
</svg>