<?xml version="1.0" encoding="UTF-8"?>
<svg width="20px" height="20px" viewBox="0 0 20 20" version="1.1" xmlns="http://www.w3.org/2000/svg" xmlns:xlink="http://www.w3.org/1999/xlink">
    <!-- Generator: Sketch 47.1 (45422) - http://www.bohemiancoding.com/sketch -->
    <title>arrow_right_in [#388]</title>
    <desc>Created with Sketch.</desc>
    <defs></defs>
    <g id="Page-1" stroke="none" stroke-width="1" fill="none" fill-rule="evenodd">
        <g id="Acceler-List-Green--TRUE-Copy" transform="translate(-456.000000, -7148.000000)" fill="#FFFFFF">
            <g id="Blog" transform="translate(242.000000, 6923.000000)">
                <g id="Group-2" transform="translate(0.000000, 115.000000)">
                    <g id="1">
                        <g id="Pic" transform="translate(1.000000, 0.000000)">
                            <g id="Group-3" transform="translate(108.000000, 107.000000)">
                                <path d="M111.673,8.726 L111.669,8.729 C111.266,9.104 111.244,9.735 111.62,10.137 L112.577,11.158 C112.876,11.478 112.649,12 112.212,12 L106,12 C105.447,12 105,12.448 105,13 C105,13.552 105.447,14 106,14 L112.197,14 C112.637,14 112.862,14.527 112.558,14.845 L111.63,15.819 C111.248,16.218 111.266,16.852 111.669,17.229 C112.068,17.603 112.695,17.584 113.071,17.186 L115.76,14.338 C116.49,13.564 116.487,12.354 115.753,11.585 L113.067,8.769 C112.692,8.376 112.071,8.357 111.673,8.726 M123.222,3 L116.777,3 C115.8,3 115,3.68 115,5.111 L115,6.007 C115,6.555 115.444,7 115.993,7 L116.006,7 C116.555,7 117,6.555 117,6.007 L117,5.993 C117,5.445 117.444,5 117.993,5 L122.006,5 C122.555,5 123,5.445 123,5.993 L123,20.007 C123,20.555 122.555,21 122.006,21 L117.993,21 C117.444,21 117,20.555 117,20.007 L117,19.993 C117,19.445 116.555,19 116.006,19 L115.993,19 C115.444,19 115,19.445 115,19.993 L115,21.111 C115,22.293 115.847,23 116.777,23 L123.222,23 C124.204,23 125,22.204 125,21.222 L125,21.111 L125,4.778 C125,3.796 124.204,3 123.222,3" id="arrow_right_in-[#388]"></path>
                            </g>
                        </g>
                    </g>
                </g>
            </g>
        </g>
    </g>
</svg>