<?xml version="1.0" encoding="UTF-8"?>
<svg width="1024px" height="768px" viewBox="0 0 1024 768" version="1.1" xmlns="http://www.w3.org/2000/svg" xmlns:xlink="http://www.w3.org/1999/xlink">
    <!-- Generator: Sketch 47.1 (45422) - http://www.bohemiancoding.com/sketch -->
    <title>shape</title>
    <desc>Created with Sketch.</desc>
    <defs>
        <linearGradient x1="2.54161345%" y1="79.8264294%" x2="26.9416768%" y2="31.2051046%" id="linearGradient-1">
            <stop stop-color="#8ED35C" offset="0%"></stop>
            <stop stop-color="#55A72F" offset="100%"></stop>
        </linearGradient>
        <path d="M0,0 L1024,0 L1024,768 C796.675683,768 626.009017,768 512,768 C397.990983,768 227.324317,768 0,768 L0,0 Z" id="path-2"></path>
        <linearGradient x1="127.685559%" y1="-2.00978267%" x2="63.1191373%" y2="32.2222621%" id="linearGradient-4">
            <stop stop-color="#ACEB7F" offset="0%"></stop>
            <stop stop-color="#74D248" offset="100%"></stop>
        </linearGradient>
    </defs>
    <g id="Page-1" stroke="none" stroke-width="1" fill="none" fill-rule="evenodd">
        <g id="Tablet-Landscape-1024">
            <g id="Header">
                <g id="shape">
                    <mask id="mask-3" fill="white">
                        <use xlink:href="#path-2"></use>
                    </mask>
                    <use id="Mask" fill="url(#linearGradient-1)" xlink:href="#path-2"></use>
                    <g mask="url(#mask-3)">
                        <g transform="translate(-195.000000, 0.000000)">
                            <path d="M0,149.126851 L0,692.094928 C182.647278,743.166324 379.687033,768.702022 591.119265,768.702022 C917.694026,768.702022 933.670559,763.860665 1037.62843,750.181068 C1046.55902,749.005911 1055.1792,747.773004 1063.51806,746.628805 C1069.8947,745.753849 1076.08053,744.775978 1082.11726,743.936236 C1088.2687,743.080539 1094.17679,741.972497 1099.98121,741.17016 C1106.81003,740.226223 1143.39617,733.769613 1149.75358,732.926099 C1219.57006,723.662708 1176.84964,613.428822 1021.59233,402.224441 L410.458393,169.989474 L0,149.126851 Z" id="Path-6" fill="url(#linearGradient-1)"></path>
                            <path d="M106.891171,0 L0,0 L0,149.745049 C59.29674,182.851649 154.428619,209.070637 285.395636,228.402014 C481.846161,257.399078 720.865983,328.332356 754.848742,344.832442 C788.831502,361.332529 910.859858,401.767625 992.679659,523.237756 C1047.22619,604.217843 1096.83559,675.790491 1141.50784,737.9557 C1162.09768,734.443509 1177.69811,731.740185 1188.30911,729.845727 C1263.67207,716.390644 1331.05317,698.292637 1356.29918,688.590683 C1372.53129,682.352739 1314.80104,586.662645 1183.10841,401.520403 L828.456028,206.154798 L276.527933,0 L106.891171,0 Z" id="Path-5" fill="#69BD43"></path>
                            <path d="M127.340968,0 C132.647886,80.9744197 213.73538,139.597661 370.603451,175.869724 C605.905557,230.277818 705.054088,224.222793 885.651562,318.427568 C987.140755,371.367215 1019.37473,393.543286 1047.55953,417.928501 C1069.52888,436.936165 1092.04374,458.403961 1123.41147,489.551817 C1195.02133,560.659721 1285.35424,708.590117 1288.52481,707.948759 C1289.74156,707.702629 1334.77628,695.77245 1348.88573,692.424361 C1358.29204,690.192302 1379.75144,683.754387 1413.26393,673.110617 L1229.69774,318.427568 L664.351484,106.972838 L395.349517,0 L127.340968,0 Z" id="Path-4" fill="#79CC53"></path>
                            <path d="M363.621031,0 C385.053206,80.6015781 462.781454,137.651403 596.805775,171.149476 C797.842255,221.396585 927.416624,272.682295 1009.70346,316.292207 C1091.99029,359.902118 1196.64931,434.065633 1272.3549,542.116556 C1322.8253,614.150505 1354.85396,661.774039 1368.44087,684.987159 L1413.52809,672.682669 L1413.52809,605.997719 L1197.23463,185.716437 L833.554354,111.767218 L608.976476,0 L363.621031,0 Z" id="Path-3" fill="#8DDD69"></path>
                            <path d="M605.053618,0 C613.492486,97.2721537 695.793558,156.34898 851.956832,177.23048 C1086.20174,208.55273 1208.93442,318.986714 1275.44137,396.105628 C1319.77935,447.518238 1365.82344,520.111874 1413.57365,613.886537 L1413.57365,0 L605.053618,0 Z" id="Path-2" fill="url(#linearGradient-4)"></path>
                        </g>
                    </g>
                </g>
            </g>
        </g>
    </g>
</svg>