<?xml version="1.0" encoding="UTF-8"?>
<svg width="20px" height="16px" viewBox="0 0 20 16" version="1.1" xmlns="http://www.w3.org/2000/svg" xmlns:xlink="http://www.w3.org/1999/xlink">
    <!-- Generator: Sketch 41.2 (35397) - http://www.bohemiancoding.com/sketch -->
    <title>twitter-logo-silhouette</title>
    <desc>Created with Sketch.</desc>
    <defs></defs>
    <g id="Reset-Password" stroke="none" stroke-width="1" fill="none" fill-rule="evenodd">
        <g id="Reset-Password-2.0" transform="translate(-1236.000000, -1002.000000)" fill="#FFFFFF">
            <g id="footer" transform="translate(0.000000, 939.000000)">
                <g id="socials" transform="translate(1043.000000, 44.000000)">
                    <g id="twitter" transform="translate(174.000000, 0.000000)">
                        <g id="twitter-logo-silhouette" transform="translate(19.000000, 19.000000)">
                            <g id="Page-1">
                                <g id="Acceler-List-Green--TRUE-Copy">
                                    <g id="Footer">
                                        <g id="twitter">
                                            <path d="M20,1.8926717 C19.2672447,2.2127332 18.4735568,2.4343143 17.6439341,2.531256 C18.4923053,2.0311598 19.1391298,1.2386997 19.450043,0.2939027 C18.656355,0.7570687 17.7782986,1.0940565 16.8377471,1.2740912 C16.0940552,0.4924024 15.0253886,0 13.8473557,0 C11.58347,0 9.7461136,1.8095788 9.7461136,4.0392383 C9.7461136,4.3577611 9.7836107,4.6639738 9.8507929,4.9594153 C6.4385595,4.790152 3.4184829,3.1852279 1.3920787,0.7386036 C1.037419,1.3341027 0.8358722,2.0311598 0.8358722,2.7713022 C0.8358722,4.1715715 1.5623779,5.4102712 2.6607296,6.1304097 C1.9889071,6.1134834 1.3608312,5.9272937 0.806187,5.6256972 L0.806187,5.6749375 C0.806187,7.6337757 2.2217014,9.2679361 4.0949926,9.6418542 C3.7528318,9.7311021 3.3872354,9.7788036 3.0153894,9.7788036 C2.7529099,9.7788036 2.4966799,9.7557223 2.24045,9.7080208 C2.765409,11.3129448 4.2777908,12.4777842 6.072963,12.5147144 C4.6683853,13.5964609 2.8982111,14.2396615 0.9764862,14.2396615 C0.6468245,14.2396615 0.3234122,14.2211964 0,14.185805 C1.8186079,15.333718 3.9731271,16 6.291696,16 C13.8348567,16 17.9610968,9.8449702 17.9610968,4.5085593 L17.9485978,3.9853818 C18.7547848,3.4145028 19.450043,2.7051356 20,1.8926717 Z" id="twitter-logo-silhouette"></path>
                                        </g>
                                    </g>
                                </g>
                            </g>
                        </g>
                    </g>
                </g>
            </g>
        </g>
    </g>
</svg>