<?xml version="1.0" encoding="UTF-8"?>
<svg width="20px" height="16px" viewBox="0 0 20 16" version="1.1" xmlns="http://www.w3.org/2000/svg" xmlns:xlink="http://www.w3.org/1999/xlink">
    <!-- Generator: Sketch 47.1 (45422) - http://www.bohemiancoding.com/sketch -->
    <title>twitter-logo-silhouette</title>
    <desc>Created with Sketch.</desc>
    <defs></defs>
    <g id="Page-1" stroke="none" stroke-width="1" fill="none" fill-rule="evenodd">
        <g id="Acceler-List-Green--TRUE-Copy" transform="translate(-1639.000000, -7724.000000)" fill="#FFFFFF">
            <g id="Footer" transform="translate(0.000000, 7662.000000)">
                <g id="twitter" transform="translate(1620.000000, 41.000000)">
                    <path d="M39,22.8926717 C38.2672447,23.2127332 37.4735568,23.4343143 36.6439341,23.531256 C37.4923053,23.0311598 38.1391298,22.2386997 38.450043,21.2939027 C37.656355,21.7570687 36.7782986,22.0940565 35.8377471,22.2740912 C35.0940552,21.4924024 34.0253886,21 32.8473557,21 C30.58347,21 28.7461136,22.8095788 28.7461136,25.0392383 C28.7461136,25.3577611 28.7836107,25.6639738 28.8507929,25.9594153 C25.4385595,25.790152 22.4184829,24.1852279 20.3920787,21.7386036 C20.037419,22.3341027 19.8358722,23.0311598 19.8358722,23.7713022 C19.8358722,25.1715715 20.5623779,26.4102712 21.6607296,27.1304097 C20.9889071,27.1134834 20.3608312,26.9272937 19.806187,26.6256972 L19.806187,26.6749375 C19.806187,28.6337757 21.2217014,30.2679361 23.0949926,30.6418542 C22.7528318,30.7311021 22.3872354,30.7788036 22.0153894,30.7788036 C21.7529099,30.7788036 21.4966799,30.7557223 21.24045,30.7080208 C21.765409,32.3129448 23.2777908,33.4777842 25.072963,33.5147144 C23.6683853,34.5964609 21.8982111,35.2396615 19.9764862,35.2396615 C19.6468245,35.2396615 19.3234122,35.2211964 19,35.185805 C20.8186079,36.333718 22.9731271,37 25.291696,37 C32.8348567,37 36.9610968,30.8449702 36.9610968,25.5085593 L36.9485978,24.9853818 C37.7547848,24.4145028 38.450043,23.7051356 39,22.8926717 Z" id="twitter-logo-silhouette"></path>
                </g>
            </g>
        </g>
    </g>
</svg>